<svg xmlns="http://www.w3.org/2000/svg" xmlns:xlink="http://www.w3.org/1999/xlink" width="940" zoomAndPan="magnify" viewBox="0 0 705 591.000005" height="788" preserveAspectRatio="xMidYMid meet" version="1.0"><defs><g/><clipPath id="1684bbdf46"><path d="M 121 220 L 628 220 L 628 561.378906 L 121 561.378906 Z M 121 220 " clip-rule="nonzero"/></clipPath></defs><g fill="#ffffff" fill-opacity="1"><g transform="translate(263.316136, 269.332427)"><g><path d="M 9.796875 0 L 8.421875 0 L 7.421875 -2.984375 L 2.78125 -2.984375 L 1.765625 0 L 0.4375 0 L 4.21875 -10.875 L 6 -10.875 Z M 5 -9.5625 L 3.140625 -4.046875 L 7.046875 -4.046875 L 5.1875 -9.5625 Z M 5 -9.5625 "/></g></g><g transform="translate(273.536323, 269.332427)"><g><path d="M 4.25 0.15625 C 3.59375 0.15625 3.007812 0 2.5 -0.3125 C 2 -0.625 1.609375 -1.097656 1.328125 -1.734375 C 1.046875 -2.367188 0.90625 -3.15625 0.90625 -4.09375 C 0.90625 -5.03125 1.050781 -5.816406 1.34375 -6.453125 C 1.644531 -7.097656 2.054688 -7.578125 2.578125 -7.890625 C 3.097656 -8.203125 3.703125 -8.359375 4.390625 -8.359375 C 4.941406 -8.359375 5.4375 -8.253906 5.875 -8.046875 C 6.3125 -7.847656 6.6875 -7.507812 7 -7.03125 L 7.15625 -7.0625 L 7.15625 -11.5 L 8.359375 -11.5 L 8.359375 0 L 7.15625 0 L 7.15625 -1.203125 L 7 -1.234375 C 6.726562 -0.828125 6.363281 -0.492188 5.90625 -0.234375 C 5.445312 0.0234375 4.894531 0.15625 4.25 0.15625 Z M 4.640625 -0.9375 C 5.398438 -0.9375 6.007812 -1.195312 6.46875 -1.71875 C 6.925781 -2.238281 7.15625 -3.03125 7.15625 -4.09375 C 7.15625 -5.164062 6.925781 -5.960938 6.46875 -6.484375 C 6.007812 -7.015625 5.398438 -7.28125 4.640625 -7.28125 C 3.847656 -7.28125 3.238281 -7.023438 2.8125 -6.515625 C 2.382812 -6.003906 2.171875 -5.195312 2.171875 -4.09375 C 2.171875 -1.988281 2.992188 -0.9375 4.640625 -0.9375 Z M 4.640625 -0.9375 "/></g></g><g transform="translate(283.33253, 269.332427)"><g><path d="M 4.25 0.15625 C 3.59375 0.15625 3.007812 0 2.5 -0.3125 C 2 -0.625 1.609375 -1.097656 1.328125 -1.734375 C 1.046875 -2.367188 0.90625 -3.15625 0.90625 -4.09375 C 0.90625 -5.03125 1.050781 -5.816406 1.34375 -6.453125 C 1.644531 -7.097656 2.054688 -7.578125 2.578125 -7.890625 C 3.097656 -8.203125 3.703125 -8.359375 4.390625 -8.359375 C 4.941406 -8.359375 5.4375 -8.253906 5.875 -8.046875 C 6.3125 -7.847656 6.6875 -7.507812 7 -7.03125 L 7.15625 -7.0625 L 7.15625 -11.5 L 8.359375 -11.5 L 8.359375 0 L 7.15625 0 L 7.15625 -1.203125 L 7 -1.234375 C 6.726562 -0.828125 6.363281 -0.492188 5.90625 -0.234375 C 5.445312 0.0234375 4.894531 0.15625 4.25 0.15625 Z M 4.640625 -0.9375 C 5.398438 -0.9375 6.007812 -1.195312 6.46875 -1.71875 C 6.925781 -2.238281 7.15625 -3.03125 7.15625 -4.09375 C 7.15625 -5.164062 6.925781 -5.960938 6.46875 -6.484375 C 6.007812 -7.015625 5.398438 -7.28125 4.640625 -7.28125 C 3.847656 -7.28125 3.238281 -7.023438 2.8125 -6.515625 C 2.382812 -6.003906 2.171875 -5.195312 2.171875 -4.09375 C 2.171875 -1.988281 2.992188 -0.9375 4.640625 -0.9375 Z M 4.640625 -0.9375 "/></g></g><g transform="translate(293.128736, 269.332427)"><g/></g><g transform="translate(296.862749, 269.332427)"><g><path d="M 3.390625 0.15625 C 2.578125 0.15625 1.941406 -0.0507812 1.484375 -0.46875 C 1.035156 -0.894531 0.8125 -1.5 0.8125 -2.28125 C 0.8125 -2.769531 0.910156 -3.179688 1.109375 -3.515625 C 1.304688 -3.847656 1.613281 -4.117188 2.03125 -4.328125 C 2.457031 -4.546875 3.015625 -4.707031 3.703125 -4.8125 C 4.296875 -4.914062 4.742188 -5.03125 5.046875 -5.15625 C 5.359375 -5.28125 5.566406 -5.414062 5.671875 -5.5625 C 5.785156 -5.71875 5.84375 -5.914062 5.84375 -6.15625 C 5.84375 -6.519531 5.710938 -6.800781 5.453125 -7 C 5.203125 -7.207031 4.789062 -7.3125 4.21875 -7.3125 C 3.6875 -7.3125 3.234375 -7.207031 2.859375 -7 C 2.484375 -6.789062 2.132812 -6.484375 1.8125 -6.078125 L 1.671875 -6.078125 L 1.078125 -6.921875 C 1.421875 -7.359375 1.859375 -7.707031 2.390625 -7.96875 C 2.929688 -8.226562 3.539062 -8.359375 4.21875 -8.359375 C 5.1875 -8.359375 5.898438 -8.144531 6.359375 -7.71875 C 6.816406 -7.300781 7.046875 -6.71875 7.046875 -5.96875 L 7.046875 -1.609375 C 7.046875 -1.160156 7.238281 -0.9375 7.625 -0.9375 C 7.757812 -0.9375 7.882812 -0.957031 8 -1 L 8.109375 -0.96875 L 8.25 -0.125 C 8.15625 -0.0625 8.035156 -0.015625 7.890625 0.015625 C 7.742188 0.046875 7.597656 0.0625 7.453125 0.0625 C 6.992188 0.0625 6.648438 -0.0351562 6.421875 -0.234375 C 6.191406 -0.429688 6.046875 -0.722656 5.984375 -1.109375 L 5.828125 -1.125 C 5.585938 -0.695312 5.269531 -0.375 4.875 -0.15625 C 4.476562 0.0507812 3.984375 0.15625 3.390625 0.15625 Z M 3.65625 -0.8125 C 4.113281 -0.8125 4.507812 -0.914062 4.84375 -1.125 C 5.175781 -1.332031 5.429688 -1.628906 5.609375 -2.015625 C 5.785156 -2.398438 5.875 -2.84375 5.875 -3.34375 L 5.875 -4.375 L 5.734375 -4.40625 C 5.546875 -4.28125 5.320312 -4.171875 5.0625 -4.078125 C 4.800781 -3.992188 4.4375 -3.921875 3.96875 -3.859375 C 3.488281 -3.785156 3.109375 -3.679688 2.828125 -3.546875 C 2.546875 -3.421875 2.34375 -3.253906 2.21875 -3.046875 C 2.101562 -2.835938 2.046875 -2.582031 2.046875 -2.28125 C 2.046875 -1.800781 2.1875 -1.4375 2.46875 -1.1875 C 2.757812 -0.9375 3.15625 -0.8125 3.65625 -0.8125 Z M 3.65625 -0.8125 "/></g></g><g transform="translate(305.349819, 269.332427)"><g/></g><g transform="translate(309.083833, 269.332427)"><g><path d="M 3.265625 0.15625 C 2.679688 0.15625 2.222656 -0.00390625 1.890625 -0.328125 C 1.566406 -0.660156 1.40625 -1.15625 1.40625 -1.8125 L 1.40625 -11.5 L 2.609375 -11.5 L 2.609375 -1.890625 C 2.609375 -1.554688 2.671875 -1.3125 2.796875 -1.15625 C 2.929688 -1.007812 3.140625 -0.9375 3.421875 -0.9375 C 3.585938 -0.9375 3.757812 -0.960938 3.9375 -1.015625 L 4.046875 -0.984375 L 4.1875 -0.03125 C 4.09375 0.03125 3.960938 0.078125 3.796875 0.109375 C 3.628906 0.140625 3.453125 0.15625 3.265625 0.15625 Z M 3.265625 0.15625 "/></g></g><g transform="translate(313.546797, 269.332427)"><g><path d="M 2.03125 -9.796875 C 1.78125 -9.796875 1.570312 -9.875 1.40625 -10.03125 C 1.25 -10.1875 1.171875 -10.390625 1.171875 -10.640625 C 1.171875 -10.890625 1.25 -11.09375 1.40625 -11.25 C 1.570312 -11.414062 1.78125 -11.5 2.03125 -11.5 C 2.289062 -11.5 2.5 -11.414062 2.65625 -11.25 C 2.820312 -11.09375 2.90625 -10.890625 2.90625 -10.640625 C 2.90625 -10.390625 2.820312 -10.1875 2.65625 -10.03125 C 2.5 -9.875 2.289062 -9.796875 2.03125 -9.796875 Z M 1.421875 0 L 1.421875 -8.203125 L 2.640625 -8.203125 L 2.640625 0 Z M 1.421875 0 "/></g></g><g transform="translate(317.615532, 269.332427)"><g><path d="M 5.546875 -1.296875 L 5.9375 -0.4375 C 5.738281 -0.238281 5.484375 -0.09375 5.171875 0 C 4.859375 0.101562 4.519531 0.15625 4.15625 0.15625 C 2.582031 0.15625 1.796875 -0.632812 1.796875 -2.21875 L 1.796875 -7.21875 L 0.375 -7.21875 L 0.375 -8.21875 L 1.796875 -8.21875 L 1.796875 -9.953125 L 3.015625 -10.140625 L 3.015625 -8.21875 L 5.65625 -8.21875 L 5.65625 -7.21875 L 3.015625 -7.21875 L 3.015625 -2.34375 C 3.015625 -1.40625 3.421875 -0.9375 4.234375 -0.9375 C 4.679688 -0.9375 5.066406 -1.054688 5.390625 -1.296875 Z M 5.546875 -1.296875 "/></g></g><g transform="translate(323.863682, 269.332427)"><g><path d="M 5.546875 -1.296875 L 5.9375 -0.4375 C 5.738281 -0.238281 5.484375 -0.09375 5.171875 0 C 4.859375 0.101562 4.519531 0.15625 4.15625 0.15625 C 2.582031 0.15625 1.796875 -0.632812 1.796875 -2.21875 L 1.796875 -7.21875 L 0.375 -7.21875 L 0.375 -8.21875 L 1.796875 -8.21875 L 1.796875 -9.953125 L 3.015625 -10.140625 L 3.015625 -8.21875 L 5.65625 -8.21875 L 5.65625 -7.21875 L 3.015625 -7.21875 L 3.015625 -2.34375 C 3.015625 -1.40625 3.421875 -0.9375 4.234375 -0.9375 C 4.679688 -0.9375 5.066406 -1.054688 5.390625 -1.296875 Z M 5.546875 -1.296875 "/></g></g><g transform="translate(330.111832, 269.332427)"><g><path d="M 3.265625 0.15625 C 2.679688 0.15625 2.222656 -0.00390625 1.890625 -0.328125 C 1.566406 -0.660156 1.40625 -1.15625 1.40625 -1.8125 L 1.40625 -11.5 L 2.609375 -11.5 L 2.609375 -1.890625 C 2.609375 -1.554688 2.671875 -1.3125 2.796875 -1.15625 C 2.929688 -1.007812 3.140625 -0.9375 3.421875 -0.9375 C 3.585938 -0.9375 3.757812 -0.960938 3.9375 -1.015625 L 4.046875 -0.984375 L 4.1875 -0.03125 C 4.09375 0.03125 3.960938 0.078125 3.796875 0.109375 C 3.628906 0.140625 3.453125 0.15625 3.265625 0.15625 Z M 3.265625 0.15625 "/></g></g><g transform="translate(334.574796, 269.332427)"><g><path d="M 7.8125 -3.828125 L 2.171875 -3.828125 C 2.210938 -2.828125 2.453125 -2.09375 2.890625 -1.625 C 3.335938 -1.164062 3.945312 -0.9375 4.71875 -0.9375 C 5.300781 -0.9375 5.769531 -1.035156 6.125 -1.234375 C 6.488281 -1.441406 6.773438 -1.769531 6.984375 -2.21875 L 7.140625 -2.21875 L 7.921875 -1.75 C 7.679688 -1.15625 7.300781 -0.6875 6.78125 -0.34375 C 6.257812 -0.0078125 5.570312 0.15625 4.71875 0.15625 C 3.925781 0.15625 3.242188 0 2.671875 -0.3125 C 2.109375 -0.625 1.671875 -1.097656 1.359375 -1.734375 C 1.054688 -2.367188 0.90625 -3.15625 0.90625 -4.09375 C 0.90625 -5.03125 1.066406 -5.816406 1.390625 -6.453125 C 1.710938 -7.097656 2.15625 -7.578125 2.71875 -7.890625 C 3.28125 -8.203125 3.925781 -8.359375 4.65625 -8.359375 C 5.695312 -8.359375 6.515625 -8.0625 7.109375 -7.46875 C 7.703125 -6.875 8 -5.992188 8 -4.828125 C 8 -4.378906 7.988281 -4.070312 7.96875 -3.90625 Z M 6.8125 -4.828125 C 6.789062 -5.703125 6.59375 -6.335938 6.21875 -6.734375 C 5.851562 -7.128906 5.332031 -7.328125 4.65625 -7.328125 C 3.9375 -7.328125 3.367188 -7.128906 2.953125 -6.734375 C 2.546875 -6.335938 2.296875 -5.703125 2.203125 -4.828125 Z M 6.8125 -4.828125 "/></g></g><g transform="translate(343.322205, 269.332427)"><g/></g><g transform="translate(347.056219, 269.332427)"><g><path d="M 5.453125 0.15625 C 4.835938 0.15625 4.304688 0.0390625 3.859375 -0.1875 C 3.410156 -0.425781 3.054688 -0.738281 2.796875 -1.125 L 2.640625 -1.09375 L 2.640625 0 L 1.421875 0 L 1.421875 -11.5 L 2.640625 -11.5 L 2.640625 -6.984375 L 2.796875 -6.953125 C 3.421875 -7.890625 4.328125 -8.359375 5.515625 -8.359375 C 6.191406 -8.359375 6.78125 -8.203125 7.28125 -7.890625 C 7.789062 -7.578125 8.1875 -7.101562 8.46875 -6.46875 C 8.75 -5.832031 8.890625 -5.039062 8.890625 -4.09375 C 8.890625 -3.164062 8.738281 -2.378906 8.4375 -1.734375 C 8.144531 -1.097656 7.738281 -0.625 7.21875 -0.3125 C 6.707031 0 6.117188 0.15625 5.453125 0.15625 Z M 5.15625 -0.9375 C 6.800781 -0.9375 7.625 -1.988281 7.625 -4.09375 C 7.625 -5.195312 7.410156 -6.003906 6.984375 -6.515625 C 6.554688 -7.023438 5.945312 -7.28125 5.15625 -7.28125 C 4.394531 -7.28125 3.785156 -7.015625 3.328125 -6.484375 C 2.867188 -5.960938 2.640625 -5.164062 2.640625 -4.09375 C 2.640625 -3.03125 2.867188 -2.238281 3.328125 -1.71875 C 3.785156 -1.195312 4.394531 -0.9375 5.15625 -0.9375 Z M 5.15625 -0.9375 "/></g></g><g transform="translate(356.844987, 269.332427)"><g><path d="M 2.03125 -9.796875 C 1.78125 -9.796875 1.570312 -9.875 1.40625 -10.03125 C 1.25 -10.1875 1.171875 -10.390625 1.171875 -10.640625 C 1.171875 -10.890625 1.25 -11.09375 1.40625 -11.25 C 1.570312 -11.414062 1.78125 -11.5 2.03125 -11.5 C 2.289062 -11.5 2.5 -11.414062 2.65625 -11.25 C 2.820312 -11.09375 2.90625 -10.890625 2.90625 -10.640625 C 2.90625 -10.390625 2.820312 -10.1875 2.65625 -10.03125 C 2.5 -9.875 2.289062 -9.796875 2.03125 -9.796875 Z M 1.421875 0 L 1.421875 -8.203125 L 2.640625 -8.203125 L 2.640625 0 Z M 1.421875 0 "/></g></g><g transform="translate(360.913722, 269.332427)"><g><path d="M 5.546875 -1.296875 L 5.9375 -0.4375 C 5.738281 -0.238281 5.484375 -0.09375 5.171875 0 C 4.859375 0.101562 4.519531 0.15625 4.15625 0.15625 C 2.582031 0.15625 1.796875 -0.632812 1.796875 -2.21875 L 1.796875 -7.21875 L 0.375 -7.21875 L 0.375 -8.21875 L 1.796875 -8.21875 L 1.796875 -9.953125 L 3.015625 -10.140625 L 3.015625 -8.21875 L 5.65625 -8.21875 L 5.65625 -7.21875 L 3.015625 -7.21875 L 3.015625 -2.34375 C 3.015625 -1.40625 3.421875 -0.9375 4.234375 -0.9375 C 4.679688 -0.9375 5.066406 -1.054688 5.390625 -1.296875 Z M 5.546875 -1.296875 "/></g></g><g transform="translate(367.161872, 269.332427)"><g/></g><g transform="translate(370.895885, 269.332427)"><g><path d="M 4.703125 0.15625 C 3.929688 0.15625 3.257812 -0.00390625 2.6875 -0.328125 C 2.113281 -0.660156 1.671875 -1.144531 1.359375 -1.78125 C 1.054688 -2.414062 0.90625 -3.1875 0.90625 -4.09375 C 0.90625 -5 1.054688 -5.769531 1.359375 -6.40625 C 1.671875 -7.050781 2.113281 -7.535156 2.6875 -7.859375 C 3.257812 -8.191406 3.929688 -8.359375 4.703125 -8.359375 C 5.484375 -8.359375 6.160156 -8.191406 6.734375 -7.859375 C 7.304688 -7.535156 7.742188 -7.050781 8.046875 -6.40625 C 8.359375 -5.769531 8.515625 -5 8.515625 -4.09375 C 8.515625 -3.1875 8.359375 -2.414062 8.046875 -1.78125 C 7.742188 -1.144531 7.304688 -0.660156 6.734375 -0.328125 C 6.160156 -0.00390625 5.484375 0.15625 4.703125 0.15625 Z M 4.703125 -0.9375 C 5.523438 -0.9375 6.148438 -1.191406 6.578125 -1.703125 C 7.015625 -2.222656 7.234375 -3.019531 7.234375 -4.09375 C 7.234375 -5.1875 7.015625 -5.988281 6.578125 -6.5 C 6.148438 -7.019531 5.523438 -7.28125 4.703125 -7.28125 C 3.890625 -7.28125 3.265625 -7.019531 2.828125 -6.5 C 2.390625 -5.976562 2.171875 -5.175781 2.171875 -4.09375 C 2.171875 -3.019531 2.390625 -2.222656 2.828125 -1.703125 C 3.265625 -1.191406 3.890625 -0.9375 4.703125 -0.9375 Z M 4.703125 -0.9375 "/></g></g><g transform="translate(380.312739, 269.332427)"><g><path d="M 1.828125 0 L 1.828125 -7.21875 L 0.40625 -7.21875 L 0.40625 -8.21875 L 1.828125 -8.21875 C 1.742188 -8.570312 1.703125 -8.910156 1.703125 -9.234375 C 1.703125 -9.765625 1.8125 -10.210938 2.03125 -10.578125 C 2.257812 -10.941406 2.570312 -11.210938 2.96875 -11.390625 C 3.375 -11.566406 3.835938 -11.65625 4.359375 -11.65625 C 5.179688 -11.65625 5.8125 -11.476562 6.25 -11.125 L 5.78125 -10.265625 L 5.625 -10.25 C 5.300781 -10.5 4.878906 -10.625 4.359375 -10.625 C 3.878906 -10.625 3.515625 -10.5 3.265625 -10.25 C 3.023438 -10.007812 2.90625 -9.660156 2.90625 -9.203125 C 2.90625 -8.921875 2.953125 -8.59375 3.046875 -8.21875 L 5.65625 -8.21875 L 5.65625 -7.21875 L 3.046875 -7.21875 L 3.046875 0 Z M 1.828125 0 "/></g></g><g transform="translate(386.159222, 269.332427)"><g/></g><g transform="translate(389.893235, 269.332427)"><g><path d="M 5.453125 0.15625 C 4.835938 0.15625 4.304688 0.0390625 3.859375 -0.1875 C 3.410156 -0.425781 3.054688 -0.738281 2.796875 -1.125 L 2.640625 -1.09375 L 2.640625 0 L 1.421875 0 L 1.421875 -11.5 L 2.640625 -11.5 L 2.640625 -6.984375 L 2.796875 -6.953125 C 3.421875 -7.890625 4.328125 -8.359375 5.515625 -8.359375 C 6.191406 -8.359375 6.78125 -8.203125 7.28125 -7.890625 C 7.789062 -7.578125 8.1875 -7.101562 8.46875 -6.46875 C 8.75 -5.832031 8.890625 -5.039062 8.890625 -4.09375 C 8.890625 -3.164062 8.738281 -2.378906 8.4375 -1.734375 C 8.144531 -1.097656 7.738281 -0.625 7.21875 -0.3125 C 6.707031 0 6.117188 0.15625 5.453125 0.15625 Z M 5.15625 -0.9375 C 6.800781 -0.9375 7.625 -1.988281 7.625 -4.09375 C 7.625 -5.195312 7.410156 -6.003906 6.984375 -6.515625 C 6.554688 -7.023438 5.945312 -7.28125 5.15625 -7.28125 C 4.394531 -7.28125 3.785156 -7.015625 3.328125 -6.484375 C 2.867188 -5.960938 2.640625 -5.164062 2.640625 -4.09375 C 2.640625 -3.03125 2.867188 -2.238281 3.328125 -1.71875 C 3.785156 -1.195312 4.394531 -0.9375 5.15625 -0.9375 Z M 5.15625 -0.9375 "/></g></g><g transform="translate(399.682003, 269.332427)"><g><path d="M 4.703125 0.15625 C 3.929688 0.15625 3.257812 -0.00390625 2.6875 -0.328125 C 2.113281 -0.660156 1.671875 -1.144531 1.359375 -1.78125 C 1.054688 -2.414062 0.90625 -3.1875 0.90625 -4.09375 C 0.90625 -5 1.054688 -5.769531 1.359375 -6.40625 C 1.671875 -7.050781 2.113281 -7.535156 2.6875 -7.859375 C 3.257812 -8.191406 3.929688 -8.359375 4.703125 -8.359375 C 5.484375 -8.359375 6.160156 -8.191406 6.734375 -7.859375 C 7.304688 -7.535156 7.742188 -7.050781 8.046875 -6.40625 C 8.359375 -5.769531 8.515625 -5 8.515625 -4.09375 C 8.515625 -3.1875 8.359375 -2.414062 8.046875 -1.78125 C 7.742188 -1.144531 7.304688 -0.660156 6.734375 -0.328125 C 6.160156 -0.00390625 5.484375 0.15625 4.703125 0.15625 Z M 4.703125 -0.9375 C 5.523438 -0.9375 6.148438 -1.191406 6.578125 -1.703125 C 7.015625 -2.222656 7.234375 -3.019531 7.234375 -4.09375 C 7.234375 -5.1875 7.015625 -5.988281 6.578125 -6.5 C 6.148438 -7.019531 5.523438 -7.28125 4.703125 -7.28125 C 3.890625 -7.28125 3.265625 -7.019531 2.828125 -6.5 C 2.390625 -5.976562 2.171875 -5.175781 2.171875 -4.09375 C 2.171875 -3.019531 2.390625 -2.222656 2.828125 -1.703125 C 3.265625 -1.191406 3.890625 -0.9375 4.703125 -0.9375 Z M 4.703125 -0.9375 "/></g></g><g transform="translate(409.098858, 269.332427)"><g><path d="M 4.25 0.15625 C 3.59375 0.15625 3.007812 0 2.5 -0.3125 C 2 -0.625 1.609375 -1.097656 1.328125 -1.734375 C 1.046875 -2.367188 0.90625 -3.15625 0.90625 -4.09375 C 0.90625 -5.03125 1.050781 -5.816406 1.34375 -6.453125 C 1.644531 -7.097656 2.054688 -7.578125 2.578125 -7.890625 C 3.097656 -8.203125 3.703125 -8.359375 4.390625 -8.359375 C 4.941406 -8.359375 5.4375 -8.253906 5.875 -8.046875 C 6.3125 -7.847656 6.6875 -7.507812 7 -7.03125 L 7.15625 -7.0625 L 7.15625 -11.5 L 8.359375 -11.5 L 8.359375 0 L 7.15625 0 L 7.15625 -1.203125 L 7 -1.234375 C 6.726562 -0.828125 6.363281 -0.492188 5.90625 -0.234375 C 5.445312 0.0234375 4.894531 0.15625 4.25 0.15625 Z M 4.640625 -0.9375 C 5.398438 -0.9375 6.007812 -1.195312 6.46875 -1.71875 C 6.925781 -2.238281 7.15625 -3.03125 7.15625 -4.09375 C 7.15625 -5.164062 6.925781 -5.960938 6.46875 -6.484375 C 6.007812 -7.015625 5.398438 -7.28125 4.640625 -7.28125 C 3.847656 -7.28125 3.238281 -7.023438 2.8125 -6.515625 C 2.382812 -6.003906 2.171875 -5.195312 2.171875 -4.09375 C 2.171875 -1.988281 2.992188 -0.9375 4.640625 -0.9375 Z M 4.640625 -0.9375 "/></g></g><g transform="translate(418.895064, 269.332427)"><g><path d="M 1.640625 3.484375 C 1.367188 3.484375 1.109375 3.457031 0.859375 3.40625 C 0.617188 3.363281 0.414062 3.300781 0.25 3.21875 L 0.46875 2.25 L 0.609375 2.203125 C 0.722656 2.265625 0.867188 2.316406 1.046875 2.359375 C 1.222656 2.398438 1.40625 2.421875 1.59375 2.421875 C 1.925781 2.421875 2.203125 2.375 2.421875 2.28125 C 2.640625 2.195312 2.828125 2.050781 2.984375 1.84375 C 3.140625 1.644531 3.285156 1.363281 3.421875 1 L 3.71875 0.1875 L 0.421875 -8.203125 L 1.71875 -8.203125 L 4.3125 -1.515625 L 4.453125 -1.515625 L 6.953125 -8.203125 L 8.1875 -8.203125 L 4.515625 1.28125 C 4.304688 1.8125 4.070312 2.234375 3.8125 2.546875 C 3.5625 2.867188 3.257812 3.101562 2.90625 3.25 C 2.550781 3.40625 2.128906 3.484375 1.640625 3.484375 Z M 1.640625 3.484375 "/></g></g><g transform="translate(427.545776, 269.332427)"><g/></g><g transform="translate(431.279789, 269.332427)"><g><path d="M 5.546875 -1.296875 L 5.9375 -0.4375 C 5.738281 -0.238281 5.484375 -0.09375 5.171875 0 C 4.859375 0.101562 4.519531 0.15625 4.15625 0.15625 C 2.582031 0.15625 1.796875 -0.632812 1.796875 -2.21875 L 1.796875 -7.21875 L 0.375 -7.21875 L 0.375 -8.21875 L 1.796875 -8.21875 L 1.796875 -9.953125 L 3.015625 -10.140625 L 3.015625 -8.21875 L 5.65625 -8.21875 L 5.65625 -7.21875 L 3.015625 -7.21875 L 3.015625 -2.34375 C 3.015625 -1.40625 3.421875 -0.9375 4.234375 -0.9375 C 4.679688 -0.9375 5.066406 -1.054688 5.390625 -1.296875 Z M 5.546875 -1.296875 "/></g></g><g transform="translate(437.527939, 269.332427)"><g><path d="M 7.8125 -3.828125 L 2.171875 -3.828125 C 2.210938 -2.828125 2.453125 -2.09375 2.890625 -1.625 C 3.335938 -1.164062 3.945312 -0.9375 4.71875 -0.9375 C 5.300781 -0.9375 5.769531 -1.035156 6.125 -1.234375 C 6.488281 -1.441406 6.773438 -1.769531 6.984375 -2.21875 L 7.140625 -2.21875 L 7.921875 -1.75 C 7.679688 -1.15625 7.300781 -0.6875 6.78125 -0.34375 C 6.257812 -0.0078125 5.570312 0.15625 4.71875 0.15625 C 3.925781 0.15625 3.242188 0 2.671875 -0.3125 C 2.109375 -0.625 1.671875 -1.097656 1.359375 -1.734375 C 1.054688 -2.367188 0.90625 -3.15625 0.90625 -4.09375 C 0.90625 -5.03125 1.066406 -5.816406 1.390625 -6.453125 C 1.710938 -7.097656 2.15625 -7.578125 2.71875 -7.890625 C 3.28125 -8.203125 3.925781 -8.359375 4.65625 -8.359375 C 5.695312 -8.359375 6.515625 -8.0625 7.109375 -7.46875 C 7.703125 -6.875 8 -5.992188 8 -4.828125 C 8 -4.378906 7.988281 -4.070312 7.96875 -3.90625 Z M 6.8125 -4.828125 C 6.789062 -5.703125 6.59375 -6.335938 6.21875 -6.734375 C 5.851562 -7.128906 5.332031 -7.328125 4.65625 -7.328125 C 3.9375 -7.328125 3.367188 -7.128906 2.953125 -6.734375 C 2.546875 -6.335938 2.296875 -5.703125 2.203125 -4.828125 Z M 6.8125 -4.828125 "/></g></g><g transform="translate(446.275348, 269.332427)"><g><path d="M 1.703125 0 L 0.375 0 L 2.90625 -4.25 L 0.5 -8.203125 L 1.859375 -8.203125 L 3.765625 -5.046875 L 3.9375 -5.046875 L 5.84375 -8.203125 L 7.15625 -8.203125 L 4.796875 -4.25 L 7.28125 0 L 5.90625 0 L 3.890625 -3.46875 L 3.71875 -3.46875 Z M 1.703125 0 "/></g></g><g transform="translate(453.921894, 269.332427)"><g><path d="M 5.546875 -1.296875 L 5.9375 -0.4375 C 5.738281 -0.238281 5.484375 -0.09375 5.171875 0 C 4.859375 0.101562 4.519531 0.15625 4.15625 0.15625 C 2.582031 0.15625 1.796875 -0.632812 1.796875 -2.21875 L 1.796875 -7.21875 L 0.375 -7.21875 L 0.375 -8.21875 L 1.796875 -8.21875 L 1.796875 -9.953125 L 3.015625 -10.140625 L 3.015625 -8.21875 L 5.65625 -8.21875 L 5.65625 -7.21875 L 3.015625 -7.21875 L 3.015625 -2.34375 C 3.015625 -1.40625 3.421875 -0.9375 4.234375 -0.9375 C 4.679688 -0.9375 5.066406 -1.054688 5.390625 -1.296875 Z M 5.546875 -1.296875 "/></g></g></g><path fill="#7ed957" d="M 490.941406 329.519531 C 491.519531 326.625 493.839844 324.886719 496.734375 324.304688 L 520.484375 321.988281 C 529.171875 320.832031 536.125 313.300781 536.125 304.613281 L 536.125 267.539062 C 536.125 258.847656 529.171875 251.320312 520.484375 250.160156 L 496.734375 247.84375 C 493.839844 247.265625 491.519531 245.527344 490.941406 242.628906 C 488.625 234.519531 485.148438 226.410156 481.09375 219.457031 C 479.9375 217.140625 479.9375 213.667969 481.671875 211.929688 L 496.734375 193.390625 C 502.527344 186.441406 501.949219 176.59375 495.574219 170.222656 L 468.929688 143.574219 C 462.558594 137.203125 452.710938 136.625 445.757812 142.417969 L 427.222656 157.476562 C 424.90625 158.636719 422.007812 158.636719 419.691406 157.476562 C 412.160156 153.421875 404.628906 150.527344 396.519531 147.628906 C 393.625 147.050781 391.886719 144.734375 391.308594 141.835938 L 388.410156 118.085938 C 387.253906 109.398438 379.722656 102.445312 371.035156 102.445312 L 333.960938 102.445312 C 325.269531 102.445312 317.742188 109.398438 316.582031 118.085938 L 314.265625 141.835938 C 313.6875 144.734375 311.949219 147.050781 309.050781 147.628906 C 300.941406 149.945312 292.832031 153.421875 285.878906 157.476562 C 283.5625 158.636719 280.089844 158.636719 278.351562 156.898438 L 259.8125 141.835938 C 252.863281 136.042969 243.015625 136.625 236.644531 142.996094 L 209.996094 169.640625 C 203.625 176.015625 203.046875 185.863281 208.839844 192.8125 L 223.898438 211.347656 C 225.636719 213.667969 225.636719 216.5625 224.476562 218.878906 C 220.421875 226.410156 217.527344 233.941406 214.628906 242.050781 C 214.050781 244.945312 211.734375 246.683594 208.839844 247.265625 L 184.507812 250.160156 C 175.820312 251.320312 168.867188 258.847656 168.867188 267.539062 L 168.867188 304.613281 C 168.867188 313.300781 175.820312 320.832031 184.507812 321.988281 L 208.257812 324.304688 C 211.15625 324.886719 213.472656 326.625 214.050781 329.519531 C 216.367188 337.628906 219.84375 345.738281 223.898438 352.691406 C 225.058594 355.007812 225.058594 358.484375 223.320312 360.222656 L 208.257812 378.757812 C 202.464844 385.710938 203.046875 395.554688 209.417969 401.929688 L 236.0625 428.574219 C 242.4375 434.945312 252.28125 435.527344 259.234375 429.734375 L 277.769531 414.671875 C 280.089844 412.933594 282.984375 412.933594 285.300781 414.09375 C 292.832031 418.148438 300.363281 421.042969 308.472656 423.941406 C 311.367188 424.519531 313.105469 426.835938 313.6875 429.734375 L 316.003906 453.484375 C 317.160156 462.171875 324.691406 469.125 333.378906 469.125 L 370.453125 469.125 C 379.144531 469.125 386.671875 462.171875 387.832031 453.484375 L 390.148438 429.734375 C 390.726562 426.835938 392.464844 424.519531 395.363281 423.941406 C 403.472656 421.625 411.582031 418.148438 418.535156 414.09375 C 420.851562 412.933594 424.324219 412.933594 426.0625 414.671875 L 444.601562 429.734375 C 451.550781 435.527344 461.398438 434.945312 467.769531 428.574219 L 494.417969 401.929688 C 500.789062 395.554688 501.367188 385.710938 495.574219 378.757812 L 480.515625 360.222656 C 479.9375 358.484375 479.9375 355.585938 481.09375 353.269531 C 485.148438 345.738281 488.046875 337.628906 490.941406 329.519531 Z M 352.496094 356.746094 C 313.6875 356.746094 281.824219 324.886719 281.824219 286.074219 C 281.824219 247.265625 313.6875 215.402344 352.496094 215.402344 C 391.308594 215.402344 423.167969 247.265625 423.167969 286.074219 C 423.167969 324.886719 391.308594 356.746094 352.496094 356.746094 Z M 352.496094 356.746094 " fill-opacity="1" fill-rule="nonzero"/><path fill="#7ed957" d="M 181.613281 115.191406 C 272.558594 24.246094 418.535156 21.347656 513.535156 105.921875 L 500.210938 119.246094 C 496.734375 122.722656 495.574219 127.933594 496.734375 132.570312 C 497.894531 137.203125 501.949219 140.679688 506.582031 141.257812 L 569.144531 152.265625 C 569.722656 152.265625 570.882812 152.265625 571.460938 152.265625 C 574.9375 152.265625 578.410156 151.105469 580.730469 148.207031 C 583.625 145.3125 584.785156 140.679688 584.203125 136.625 L 573.199219 74.0625 C 572.617188 69.429688 569.144531 65.375 564.507812 64.214844 C 559.875 63.054688 554.660156 64.214844 551.1875 67.691406 L 537.285156 81.59375 C 428.960938 -15.144531 262.128906 -12.828125 157.863281 91.441406 C 93.5625 155.738281 65.179688 247.84375 81.976562 337.050781 C 83.714844 345.160156 90.667969 350.953125 98.199219 350.953125 C 99.355469 350.953125 100.515625 350.953125 101.09375 350.375 C 110.363281 348.636719 116.15625 339.945312 114.417969 330.679688 C 99.933594 252.476562 124.84375 171.378906 181.613281 115.191406 Z M 181.613281 115.191406 " fill-opacity="1" fill-rule="nonzero"/><g clip-path="url(#1684bbdf46)"><path fill="#7ed957" d="M 623.015625 234.519531 C 621.277344 225.25 612.589844 219.457031 603.320312 221.195312 C 594.050781 222.933594 588.257812 231.625 589.996094 240.890625 C 605.058594 319.671875 580.148438 400.191406 523.382812 456.960938 C 432.4375 547.902344 286.460938 550.800781 191.460938 466.226562 L 204.78125 452.902344 C 208.257812 449.429688 209.417969 444.214844 208.257812 439.582031 C 206.519531 434.945312 203.046875 431.472656 198.410156 430.890625 L 136.429688 419.886719 C 132.375 419.304688 127.742188 420.464844 124.84375 423.363281 C 121.949219 426.257812 120.210938 430.890625 121.367188 434.945312 L 132.375 497.507812 C 133.53125 502.140625 136.429688 506.195312 141.0625 507.355469 C 142.222656 507.933594 143.378906 507.933594 145.117188 507.933594 C 148.59375 507.933594 152.070312 506.777344 154.386719 503.878906 L 168.289062 489.976562 C 220.421875 537.476562 286.460938 561.226562 352.496094 561.226562 C 423.167969 561.226562 493.257812 534.582031 547.132812 480.710938 C 611.429688 416.410156 639.8125 324.304688 623.015625 234.519531 Z M 623.015625 234.519531 " fill-opacity="1" fill-rule="nonzero"/></g></svg>