<svg xmlns="http://www.w3.org/2000/svg" xmlns:xlink="http://www.w3.org/1999/xlink" width="940" zoomAndPan="magnify" viewBox="0 0 705 591.000005" height="788" preserveAspectRatio="xMidYMid meet" version="1.0"><defs><g/><clipPath id="0025958526"><path d="M 102.089844 22.074219 L 602.992188 22.074219 L 602.992188 567.898438 L 102.089844 567.898438 Z M 102.089844 22.074219 " clip-rule="nonzero"/></clipPath></defs><g fill="#ffffff" fill-opacity="1"><g transform="translate(263.316136, 269.332427)"><g><path d="M 9.796875 0 L 8.421875 0 L 7.421875 -2.984375 L 2.78125 -2.984375 L 1.765625 0 L 0.4375 0 L 4.21875 -10.875 L 6 -10.875 Z M 5 -9.5625 L 3.140625 -4.046875 L 7.046875 -4.046875 L 5.1875 -9.5625 Z M 5 -9.5625 "/></g></g><g transform="translate(273.536323, 269.332427)"><g><path d="M 4.25 0.15625 C 3.59375 0.15625 3.007812 0 2.5 -0.3125 C 2 -0.625 1.609375 -1.097656 1.328125 -1.734375 C 1.046875 -2.367188 0.90625 -3.15625 0.90625 -4.09375 C 0.90625 -5.03125 1.050781 -5.816406 1.34375 -6.453125 C 1.644531 -7.097656 2.054688 -7.578125 2.578125 -7.890625 C 3.097656 -8.203125 3.703125 -8.359375 4.390625 -8.359375 C 4.941406 -8.359375 5.4375 -8.253906 5.875 -8.046875 C 6.3125 -7.847656 6.6875 -7.507812 7 -7.03125 L 7.15625 -7.0625 L 7.15625 -11.5 L 8.359375 -11.5 L 8.359375 0 L 7.15625 0 L 7.15625 -1.203125 L 7 -1.234375 C 6.726562 -0.828125 6.363281 -0.492188 5.90625 -0.234375 C 5.445312 0.0234375 4.894531 0.15625 4.25 0.15625 Z M 4.640625 -0.9375 C 5.398438 -0.9375 6.007812 -1.195312 6.46875 -1.71875 C 6.925781 -2.238281 7.15625 -3.03125 7.15625 -4.09375 C 7.15625 -5.164062 6.925781 -5.960938 6.46875 -6.484375 C 6.007812 -7.015625 5.398438 -7.28125 4.640625 -7.28125 C 3.847656 -7.28125 3.238281 -7.023438 2.8125 -6.515625 C 2.382812 -6.003906 2.171875 -5.195312 2.171875 -4.09375 C 2.171875 -1.988281 2.992188 -0.9375 4.640625 -0.9375 Z M 4.640625 -0.9375 "/></g></g><g transform="translate(283.33253, 269.332427)"><g><path d="M 4.25 0.15625 C 3.59375 0.15625 3.007812 0 2.5 -0.3125 C 2 -0.625 1.609375 -1.097656 1.328125 -1.734375 C 1.046875 -2.367188 0.90625 -3.15625 0.90625 -4.09375 C 0.90625 -5.03125 1.050781 -5.816406 1.34375 -6.453125 C 1.644531 -7.097656 2.054688 -7.578125 2.578125 -7.890625 C 3.097656 -8.203125 3.703125 -8.359375 4.390625 -8.359375 C 4.941406 -8.359375 5.4375 -8.253906 5.875 -8.046875 C 6.3125 -7.847656 6.6875 -7.507812 7 -7.03125 L 7.15625 -7.0625 L 7.15625 -11.5 L 8.359375 -11.5 L 8.359375 0 L 7.15625 0 L 7.15625 -1.203125 L 7 -1.234375 C 6.726562 -0.828125 6.363281 -0.492188 5.90625 -0.234375 C 5.445312 0.0234375 4.894531 0.15625 4.25 0.15625 Z M 4.640625 -0.9375 C 5.398438 -0.9375 6.007812 -1.195312 6.46875 -1.71875 C 6.925781 -2.238281 7.15625 -3.03125 7.15625 -4.09375 C 7.15625 -5.164062 6.925781 -5.960938 6.46875 -6.484375 C 6.007812 -7.015625 5.398438 -7.28125 4.640625 -7.28125 C 3.847656 -7.28125 3.238281 -7.023438 2.8125 -6.515625 C 2.382812 -6.003906 2.171875 -5.195312 2.171875 -4.09375 C 2.171875 -1.988281 2.992188 -0.9375 4.640625 -0.9375 Z M 4.640625 -0.9375 "/></g></g><g transform="translate(293.128736, 269.332427)"><g/></g><g transform="translate(296.862749, 269.332427)"><g><path d="M 3.390625 0.15625 C 2.578125 0.15625 1.941406 -0.0507812 1.484375 -0.46875 C 1.035156 -0.894531 0.8125 -1.5 0.8125 -2.28125 C 0.8125 -2.769531 0.910156 -3.179688 1.109375 -3.515625 C 1.304688 -3.847656 1.613281 -4.117188 2.03125 -4.328125 C 2.457031 -4.546875 3.015625 -4.707031 3.703125 -4.8125 C 4.296875 -4.914062 4.742188 -5.03125 5.046875 -5.15625 C 5.359375 -5.28125 5.566406 -5.414062 5.671875 -5.5625 C 5.785156 -5.71875 5.84375 -5.914062 5.84375 -6.15625 C 5.84375 -6.519531 5.710938 -6.800781 5.453125 -7 C 5.203125 -7.207031 4.789062 -7.3125 4.21875 -7.3125 C 3.6875 -7.3125 3.234375 -7.207031 2.859375 -7 C 2.484375 -6.789062 2.132812 -6.484375 1.8125 -6.078125 L 1.671875 -6.078125 L 1.078125 -6.921875 C 1.421875 -7.359375 1.859375 -7.707031 2.390625 -7.96875 C 2.929688 -8.226562 3.539062 -8.359375 4.21875 -8.359375 C 5.1875 -8.359375 5.898438 -8.144531 6.359375 -7.71875 C 6.816406 -7.300781 7.046875 -6.71875 7.046875 -5.96875 L 7.046875 -1.609375 C 7.046875 -1.160156 7.238281 -0.9375 7.625 -0.9375 C 7.757812 -0.9375 7.882812 -0.957031 8 -1 L 8.109375 -0.96875 L 8.25 -0.125 C 8.15625 -0.0625 8.035156 -0.015625 7.890625 0.015625 C 7.742188 0.046875 7.597656 0.0625 7.453125 0.0625 C 6.992188 0.0625 6.648438 -0.0351562 6.421875 -0.234375 C 6.191406 -0.429688 6.046875 -0.722656 5.984375 -1.109375 L 5.828125 -1.125 C 5.585938 -0.695312 5.269531 -0.375 4.875 -0.15625 C 4.476562 0.0507812 3.984375 0.15625 3.390625 0.15625 Z M 3.65625 -0.8125 C 4.113281 -0.8125 4.507812 -0.914062 4.84375 -1.125 C 5.175781 -1.332031 5.429688 -1.628906 5.609375 -2.015625 C 5.785156 -2.398438 5.875 -2.84375 5.875 -3.34375 L 5.875 -4.375 L 5.734375 -4.40625 C 5.546875 -4.28125 5.320312 -4.171875 5.0625 -4.078125 C 4.800781 -3.992188 4.4375 -3.921875 3.96875 -3.859375 C 3.488281 -3.785156 3.109375 -3.679688 2.828125 -3.546875 C 2.546875 -3.421875 2.34375 -3.253906 2.21875 -3.046875 C 2.101562 -2.835938 2.046875 -2.582031 2.046875 -2.28125 C 2.046875 -1.800781 2.1875 -1.4375 2.46875 -1.1875 C 2.757812 -0.9375 3.15625 -0.8125 3.65625 -0.8125 Z M 3.65625 -0.8125 "/></g></g><g transform="translate(305.349819, 269.332427)"><g/></g><g transform="translate(309.083833, 269.332427)"><g><path d="M 3.265625 0.15625 C 2.679688 0.15625 2.222656 -0.00390625 1.890625 -0.328125 C 1.566406 -0.660156 1.40625 -1.15625 1.40625 -1.8125 L 1.40625 -11.5 L 2.609375 -11.5 L 2.609375 -1.890625 C 2.609375 -1.554688 2.671875 -1.3125 2.796875 -1.15625 C 2.929688 -1.007812 3.140625 -0.9375 3.421875 -0.9375 C 3.585938 -0.9375 3.757812 -0.960938 3.9375 -1.015625 L 4.046875 -0.984375 L 4.1875 -0.03125 C 4.09375 0.03125 3.960938 0.078125 3.796875 0.109375 C 3.628906 0.140625 3.453125 0.15625 3.265625 0.15625 Z M 3.265625 0.15625 "/></g></g><g transform="translate(313.546797, 269.332427)"><g><path d="M 2.03125 -9.796875 C 1.78125 -9.796875 1.570312 -9.875 1.40625 -10.03125 C 1.25 -10.1875 1.171875 -10.390625 1.171875 -10.640625 C 1.171875 -10.890625 1.25 -11.09375 1.40625 -11.25 C 1.570312 -11.414062 1.78125 -11.5 2.03125 -11.5 C 2.289062 -11.5 2.5 -11.414062 2.65625 -11.25 C 2.820312 -11.09375 2.90625 -10.890625 2.90625 -10.640625 C 2.90625 -10.390625 2.820312 -10.1875 2.65625 -10.03125 C 2.5 -9.875 2.289062 -9.796875 2.03125 -9.796875 Z M 1.421875 0 L 1.421875 -8.203125 L 2.640625 -8.203125 L 2.640625 0 Z M 1.421875 0 "/></g></g><g transform="translate(317.615532, 269.332427)"><g><path d="M 5.546875 -1.296875 L 5.9375 -0.4375 C 5.738281 -0.238281 5.484375 -0.09375 5.171875 0 C 4.859375 0.101562 4.519531 0.15625 4.15625 0.15625 C 2.582031 0.15625 1.796875 -0.632812 1.796875 -2.21875 L 1.796875 -7.21875 L 0.375 -7.21875 L 0.375 -8.21875 L 1.796875 -8.21875 L 1.796875 -9.953125 L 3.015625 -10.140625 L 3.015625 -8.21875 L 5.65625 -8.21875 L 5.65625 -7.21875 L 3.015625 -7.21875 L 3.015625 -2.34375 C 3.015625 -1.40625 3.421875 -0.9375 4.234375 -0.9375 C 4.679688 -0.9375 5.066406 -1.054688 5.390625 -1.296875 Z M 5.546875 -1.296875 "/></g></g><g transform="translate(323.863682, 269.332427)"><g><path d="M 5.546875 -1.296875 L 5.9375 -0.4375 C 5.738281 -0.238281 5.484375 -0.09375 5.171875 0 C 4.859375 0.101562 4.519531 0.15625 4.15625 0.15625 C 2.582031 0.15625 1.796875 -0.632812 1.796875 -2.21875 L 1.796875 -7.21875 L 0.375 -7.21875 L 0.375 -8.21875 L 1.796875 -8.21875 L 1.796875 -9.953125 L 3.015625 -10.140625 L 3.015625 -8.21875 L 5.65625 -8.21875 L 5.65625 -7.21875 L 3.015625 -7.21875 L 3.015625 -2.34375 C 3.015625 -1.40625 3.421875 -0.9375 4.234375 -0.9375 C 4.679688 -0.9375 5.066406 -1.054688 5.390625 -1.296875 Z M 5.546875 -1.296875 "/></g></g><g transform="translate(330.111832, 269.332427)"><g><path d="M 3.265625 0.15625 C 2.679688 0.15625 2.222656 -0.00390625 1.890625 -0.328125 C 1.566406 -0.660156 1.40625 -1.15625 1.40625 -1.8125 L 1.40625 -11.5 L 2.609375 -11.5 L 2.609375 -1.890625 C 2.609375 -1.554688 2.671875 -1.3125 2.796875 -1.15625 C 2.929688 -1.007812 3.140625 -0.9375 3.421875 -0.9375 C 3.585938 -0.9375 3.757812 -0.960938 3.9375 -1.015625 L 4.046875 -0.984375 L 4.1875 -0.03125 C 4.09375 0.03125 3.960938 0.078125 3.796875 0.109375 C 3.628906 0.140625 3.453125 0.15625 3.265625 0.15625 Z M 3.265625 0.15625 "/></g></g><g transform="translate(334.574796, 269.332427)"><g><path d="M 7.8125 -3.828125 L 2.171875 -3.828125 C 2.210938 -2.828125 2.453125 -2.09375 2.890625 -1.625 C 3.335938 -1.164062 3.945312 -0.9375 4.71875 -0.9375 C 5.300781 -0.9375 5.769531 -1.035156 6.125 -1.234375 C 6.488281 -1.441406 6.773438 -1.769531 6.984375 -2.21875 L 7.140625 -2.21875 L 7.921875 -1.75 C 7.679688 -1.15625 7.300781 -0.6875 6.78125 -0.34375 C 6.257812 -0.0078125 5.570312 0.15625 4.71875 0.15625 C 3.925781 0.15625 3.242188 0 2.671875 -0.3125 C 2.109375 -0.625 1.671875 -1.097656 1.359375 -1.734375 C 1.054688 -2.367188 0.90625 -3.15625 0.90625 -4.09375 C 0.90625 -5.03125 1.066406 -5.816406 1.390625 -6.453125 C 1.710938 -7.097656 2.15625 -7.578125 2.71875 -7.890625 C 3.28125 -8.203125 3.925781 -8.359375 4.65625 -8.359375 C 5.695312 -8.359375 6.515625 -8.0625 7.109375 -7.46875 C 7.703125 -6.875 8 -5.992188 8 -4.828125 C 8 -4.378906 7.988281 -4.070312 7.96875 -3.90625 Z M 6.8125 -4.828125 C 6.789062 -5.703125 6.59375 -6.335938 6.21875 -6.734375 C 5.851562 -7.128906 5.332031 -7.328125 4.65625 -7.328125 C 3.9375 -7.328125 3.367188 -7.128906 2.953125 -6.734375 C 2.546875 -6.335938 2.296875 -5.703125 2.203125 -4.828125 Z M 6.8125 -4.828125 "/></g></g><g transform="translate(343.322205, 269.332427)"><g/></g><g transform="translate(347.056219, 269.332427)"><g><path d="M 5.453125 0.15625 C 4.835938 0.15625 4.304688 0.0390625 3.859375 -0.1875 C 3.410156 -0.425781 3.054688 -0.738281 2.796875 -1.125 L 2.640625 -1.09375 L 2.640625 0 L 1.421875 0 L 1.421875 -11.5 L 2.640625 -11.5 L 2.640625 -6.984375 L 2.796875 -6.953125 C 3.421875 -7.890625 4.328125 -8.359375 5.515625 -8.359375 C 6.191406 -8.359375 6.78125 -8.203125 7.28125 -7.890625 C 7.789062 -7.578125 8.1875 -7.101562 8.46875 -6.46875 C 8.75 -5.832031 8.890625 -5.039062 8.890625 -4.09375 C 8.890625 -3.164062 8.738281 -2.378906 8.4375 -1.734375 C 8.144531 -1.097656 7.738281 -0.625 7.21875 -0.3125 C 6.707031 0 6.117188 0.15625 5.453125 0.15625 Z M 5.15625 -0.9375 C 6.800781 -0.9375 7.625 -1.988281 7.625 -4.09375 C 7.625 -5.195312 7.410156 -6.003906 6.984375 -6.515625 C 6.554688 -7.023438 5.945312 -7.28125 5.15625 -7.28125 C 4.394531 -7.28125 3.785156 -7.015625 3.328125 -6.484375 C 2.867188 -5.960938 2.640625 -5.164062 2.640625 -4.09375 C 2.640625 -3.03125 2.867188 -2.238281 3.328125 -1.71875 C 3.785156 -1.195312 4.394531 -0.9375 5.15625 -0.9375 Z M 5.15625 -0.9375 "/></g></g><g transform="translate(356.844987, 269.332427)"><g><path d="M 2.03125 -9.796875 C 1.78125 -9.796875 1.570312 -9.875 1.40625 -10.03125 C 1.25 -10.1875 1.171875 -10.390625 1.171875 -10.640625 C 1.171875 -10.890625 1.25 -11.09375 1.40625 -11.25 C 1.570312 -11.414062 1.78125 -11.5 2.03125 -11.5 C 2.289062 -11.5 2.5 -11.414062 2.65625 -11.25 C 2.820312 -11.09375 2.90625 -10.890625 2.90625 -10.640625 C 2.90625 -10.390625 2.820312 -10.1875 2.65625 -10.03125 C 2.5 -9.875 2.289062 -9.796875 2.03125 -9.796875 Z M 1.421875 0 L 1.421875 -8.203125 L 2.640625 -8.203125 L 2.640625 0 Z M 1.421875 0 "/></g></g><g transform="translate(360.913722, 269.332427)"><g><path d="M 5.546875 -1.296875 L 5.9375 -0.4375 C 5.738281 -0.238281 5.484375 -0.09375 5.171875 0 C 4.859375 0.101562 4.519531 0.15625 4.15625 0.15625 C 2.582031 0.15625 1.796875 -0.632812 1.796875 -2.21875 L 1.796875 -7.21875 L 0.375 -7.21875 L 0.375 -8.21875 L 1.796875 -8.21875 L 1.796875 -9.953125 L 3.015625 -10.140625 L 3.015625 -8.21875 L 5.65625 -8.21875 L 5.65625 -7.21875 L 3.015625 -7.21875 L 3.015625 -2.34375 C 3.015625 -1.40625 3.421875 -0.9375 4.234375 -0.9375 C 4.679688 -0.9375 5.066406 -1.054688 5.390625 -1.296875 Z M 5.546875 -1.296875 "/></g></g><g transform="translate(367.161872, 269.332427)"><g/></g><g transform="translate(370.895885, 269.332427)"><g><path d="M 4.703125 0.15625 C 3.929688 0.15625 3.257812 -0.00390625 2.6875 -0.328125 C 2.113281 -0.660156 1.671875 -1.144531 1.359375 -1.78125 C 1.054688 -2.414062 0.90625 -3.1875 0.90625 -4.09375 C 0.90625 -5 1.054688 -5.769531 1.359375 -6.40625 C 1.671875 -7.050781 2.113281 -7.535156 2.6875 -7.859375 C 3.257812 -8.191406 3.929688 -8.359375 4.703125 -8.359375 C 5.484375 -8.359375 6.160156 -8.191406 6.734375 -7.859375 C 7.304688 -7.535156 7.742188 -7.050781 8.046875 -6.40625 C 8.359375 -5.769531 8.515625 -5 8.515625 -4.09375 C 8.515625 -3.1875 8.359375 -2.414062 8.046875 -1.78125 C 7.742188 -1.144531 7.304688 -0.660156 6.734375 -0.328125 C 6.160156 -0.00390625 5.484375 0.15625 4.703125 0.15625 Z M 4.703125 -0.9375 C 5.523438 -0.9375 6.148438 -1.191406 6.578125 -1.703125 C 7.015625 -2.222656 7.234375 -3.019531 7.234375 -4.09375 C 7.234375 -5.1875 7.015625 -5.988281 6.578125 -6.5 C 6.148438 -7.019531 5.523438 -7.28125 4.703125 -7.28125 C 3.890625 -7.28125 3.265625 -7.019531 2.828125 -6.5 C 2.390625 -5.976562 2.171875 -5.175781 2.171875 -4.09375 C 2.171875 -3.019531 2.390625 -2.222656 2.828125 -1.703125 C 3.265625 -1.191406 3.890625 -0.9375 4.703125 -0.9375 Z M 4.703125 -0.9375 "/></g></g><g transform="translate(380.312739, 269.332427)"><g><path d="M 1.828125 0 L 1.828125 -7.21875 L 0.40625 -7.21875 L 0.40625 -8.21875 L 1.828125 -8.21875 C 1.742188 -8.570312 1.703125 -8.910156 1.703125 -9.234375 C 1.703125 -9.765625 1.8125 -10.210938 2.03125 -10.578125 C 2.257812 -10.941406 2.570312 -11.210938 2.96875 -11.390625 C 3.375 -11.566406 3.835938 -11.65625 4.359375 -11.65625 C 5.179688 -11.65625 5.8125 -11.476562 6.25 -11.125 L 5.78125 -10.265625 L 5.625 -10.25 C 5.300781 -10.5 4.878906 -10.625 4.359375 -10.625 C 3.878906 -10.625 3.515625 -10.5 3.265625 -10.25 C 3.023438 -10.007812 2.90625 -9.660156 2.90625 -9.203125 C 2.90625 -8.921875 2.953125 -8.59375 3.046875 -8.21875 L 5.65625 -8.21875 L 5.65625 -7.21875 L 3.046875 -7.21875 L 3.046875 0 Z M 1.828125 0 "/></g></g><g transform="translate(386.159222, 269.332427)"><g/></g><g transform="translate(389.893235, 269.332427)"><g><path d="M 5.453125 0.15625 C 4.835938 0.15625 4.304688 0.0390625 3.859375 -0.1875 C 3.410156 -0.425781 3.054688 -0.738281 2.796875 -1.125 L 2.640625 -1.09375 L 2.640625 0 L 1.421875 0 L 1.421875 -11.5 L 2.640625 -11.5 L 2.640625 -6.984375 L 2.796875 -6.953125 C 3.421875 -7.890625 4.328125 -8.359375 5.515625 -8.359375 C 6.191406 -8.359375 6.78125 -8.203125 7.28125 -7.890625 C 7.789062 -7.578125 8.1875 -7.101562 8.46875 -6.46875 C 8.75 -5.832031 8.890625 -5.039062 8.890625 -4.09375 C 8.890625 -3.164062 8.738281 -2.378906 8.4375 -1.734375 C 8.144531 -1.097656 7.738281 -0.625 7.21875 -0.3125 C 6.707031 0 6.117188 0.15625 5.453125 0.15625 Z M 5.15625 -0.9375 C 6.800781 -0.9375 7.625 -1.988281 7.625 -4.09375 C 7.625 -5.195312 7.410156 -6.003906 6.984375 -6.515625 C 6.554688 -7.023438 5.945312 -7.28125 5.15625 -7.28125 C 4.394531 -7.28125 3.785156 -7.015625 3.328125 -6.484375 C 2.867188 -5.960938 2.640625 -5.164062 2.640625 -4.09375 C 2.640625 -3.03125 2.867188 -2.238281 3.328125 -1.71875 C 3.785156 -1.195312 4.394531 -0.9375 5.15625 -0.9375 Z M 5.15625 -0.9375 "/></g></g><g transform="translate(399.682003, 269.332427)"><g><path d="M 4.703125 0.15625 C 3.929688 0.15625 3.257812 -0.00390625 2.6875 -0.328125 C 2.113281 -0.660156 1.671875 -1.144531 1.359375 -1.78125 C 1.054688 -2.414062 0.90625 -3.1875 0.90625 -4.09375 C 0.90625 -5 1.054688 -5.769531 1.359375 -6.40625 C 1.671875 -7.050781 2.113281 -7.535156 2.6875 -7.859375 C 3.257812 -8.191406 3.929688 -8.359375 4.703125 -8.359375 C 5.484375 -8.359375 6.160156 -8.191406 6.734375 -7.859375 C 7.304688 -7.535156 7.742188 -7.050781 8.046875 -6.40625 C 8.359375 -5.769531 8.515625 -5 8.515625 -4.09375 C 8.515625 -3.1875 8.359375 -2.414062 8.046875 -1.78125 C 7.742188 -1.144531 7.304688 -0.660156 6.734375 -0.328125 C 6.160156 -0.00390625 5.484375 0.15625 4.703125 0.15625 Z M 4.703125 -0.9375 C 5.523438 -0.9375 6.148438 -1.191406 6.578125 -1.703125 C 7.015625 -2.222656 7.234375 -3.019531 7.234375 -4.09375 C 7.234375 -5.1875 7.015625 -5.988281 6.578125 -6.5 C 6.148438 -7.019531 5.523438 -7.28125 4.703125 -7.28125 C 3.890625 -7.28125 3.265625 -7.019531 2.828125 -6.5 C 2.390625 -5.976562 2.171875 -5.175781 2.171875 -4.09375 C 2.171875 -3.019531 2.390625 -2.222656 2.828125 -1.703125 C 3.265625 -1.191406 3.890625 -0.9375 4.703125 -0.9375 Z M 4.703125 -0.9375 "/></g></g><g transform="translate(409.098858, 269.332427)"><g><path d="M 4.25 0.15625 C 3.59375 0.15625 3.007812 0 2.5 -0.3125 C 2 -0.625 1.609375 -1.097656 1.328125 -1.734375 C 1.046875 -2.367188 0.90625 -3.15625 0.90625 -4.09375 C 0.90625 -5.03125 1.050781 -5.816406 1.34375 -6.453125 C 1.644531 -7.097656 2.054688 -7.578125 2.578125 -7.890625 C 3.097656 -8.203125 3.703125 -8.359375 4.390625 -8.359375 C 4.941406 -8.359375 5.4375 -8.253906 5.875 -8.046875 C 6.3125 -7.847656 6.6875 -7.507812 7 -7.03125 L 7.15625 -7.0625 L 7.15625 -11.5 L 8.359375 -11.5 L 8.359375 0 L 7.15625 0 L 7.15625 -1.203125 L 7 -1.234375 C 6.726562 -0.828125 6.363281 -0.492188 5.90625 -0.234375 C 5.445312 0.0234375 4.894531 0.15625 4.25 0.15625 Z M 4.640625 -0.9375 C 5.398438 -0.9375 6.007812 -1.195312 6.46875 -1.71875 C 6.925781 -2.238281 7.15625 -3.03125 7.15625 -4.09375 C 7.15625 -5.164062 6.925781 -5.960938 6.46875 -6.484375 C 6.007812 -7.015625 5.398438 -7.28125 4.640625 -7.28125 C 3.847656 -7.28125 3.238281 -7.023438 2.8125 -6.515625 C 2.382812 -6.003906 2.171875 -5.195312 2.171875 -4.09375 C 2.171875 -1.988281 2.992188 -0.9375 4.640625 -0.9375 Z M 4.640625 -0.9375 "/></g></g><g transform="translate(418.895064, 269.332427)"><g><path d="M 1.640625 3.484375 C 1.367188 3.484375 1.109375 3.457031 0.859375 3.40625 C 0.617188 3.363281 0.414062 3.300781 0.25 3.21875 L 0.46875 2.25 L 0.609375 2.203125 C 0.722656 2.265625 0.867188 2.316406 1.046875 2.359375 C 1.222656 2.398438 1.40625 2.421875 1.59375 2.421875 C 1.925781 2.421875 2.203125 2.375 2.421875 2.28125 C 2.640625 2.195312 2.828125 2.050781 2.984375 1.84375 C 3.140625 1.644531 3.285156 1.363281 3.421875 1 L 3.71875 0.1875 L 0.421875 -8.203125 L 1.71875 -8.203125 L 4.3125 -1.515625 L 4.453125 -1.515625 L 6.953125 -8.203125 L 8.1875 -8.203125 L 4.515625 1.28125 C 4.304688 1.8125 4.070312 2.234375 3.8125 2.546875 C 3.5625 2.867188 3.257812 3.101562 2.90625 3.25 C 2.550781 3.40625 2.128906 3.484375 1.640625 3.484375 Z M 1.640625 3.484375 "/></g></g><g transform="translate(427.545776, 269.332427)"><g/></g><g transform="translate(431.279789, 269.332427)"><g><path d="M 5.546875 -1.296875 L 5.9375 -0.4375 C 5.738281 -0.238281 5.484375 -0.09375 5.171875 0 C 4.859375 0.101562 4.519531 0.15625 4.15625 0.15625 C 2.582031 0.15625 1.796875 -0.632812 1.796875 -2.21875 L 1.796875 -7.21875 L 0.375 -7.21875 L 0.375 -8.21875 L 1.796875 -8.21875 L 1.796875 -9.953125 L 3.015625 -10.140625 L 3.015625 -8.21875 L 5.65625 -8.21875 L 5.65625 -7.21875 L 3.015625 -7.21875 L 3.015625 -2.34375 C 3.015625 -1.40625 3.421875 -0.9375 4.234375 -0.9375 C 4.679688 -0.9375 5.066406 -1.054688 5.390625 -1.296875 Z M 5.546875 -1.296875 "/></g></g><g transform="translate(437.527939, 269.332427)"><g><path d="M 7.8125 -3.828125 L 2.171875 -3.828125 C 2.210938 -2.828125 2.453125 -2.09375 2.890625 -1.625 C 3.335938 -1.164062 3.945312 -0.9375 4.71875 -0.9375 C 5.300781 -0.9375 5.769531 -1.035156 6.125 -1.234375 C 6.488281 -1.441406 6.773438 -1.769531 6.984375 -2.21875 L 7.140625 -2.21875 L 7.921875 -1.75 C 7.679688 -1.15625 7.300781 -0.6875 6.78125 -0.34375 C 6.257812 -0.0078125 5.570312 0.15625 4.71875 0.15625 C 3.925781 0.15625 3.242188 0 2.671875 -0.3125 C 2.109375 -0.625 1.671875 -1.097656 1.359375 -1.734375 C 1.054688 -2.367188 0.90625 -3.15625 0.90625 -4.09375 C 0.90625 -5.03125 1.066406 -5.816406 1.390625 -6.453125 C 1.710938 -7.097656 2.15625 -7.578125 2.71875 -7.890625 C 3.28125 -8.203125 3.925781 -8.359375 4.65625 -8.359375 C 5.695312 -8.359375 6.515625 -8.0625 7.109375 -7.46875 C 7.703125 -6.875 8 -5.992188 8 -4.828125 C 8 -4.378906 7.988281 -4.070312 7.96875 -3.90625 Z M 6.8125 -4.828125 C 6.789062 -5.703125 6.59375 -6.335938 6.21875 -6.734375 C 5.851562 -7.128906 5.332031 -7.328125 4.65625 -7.328125 C 3.9375 -7.328125 3.367188 -7.128906 2.953125 -6.734375 C 2.546875 -6.335938 2.296875 -5.703125 2.203125 -4.828125 Z M 6.8125 -4.828125 "/></g></g><g transform="translate(446.275348, 269.332427)"><g><path d="M 1.703125 0 L 0.375 0 L 2.90625 -4.25 L 0.5 -8.203125 L 1.859375 -8.203125 L 3.765625 -5.046875 L 3.9375 -5.046875 L 5.84375 -8.203125 L 7.15625 -8.203125 L 4.796875 -4.25 L 7.28125 0 L 5.90625 0 L 3.890625 -3.46875 L 3.71875 -3.46875 Z M 1.703125 0 "/></g></g><g transform="translate(453.921894, 269.332427)"><g><path d="M 5.546875 -1.296875 L 5.9375 -0.4375 C 5.738281 -0.238281 5.484375 -0.09375 5.171875 0 C 4.859375 0.101562 4.519531 0.15625 4.15625 0.15625 C 2.582031 0.15625 1.796875 -0.632812 1.796875 -2.21875 L 1.796875 -7.21875 L 0.375 -7.21875 L 0.375 -8.21875 L 1.796875 -8.21875 L 1.796875 -9.953125 L 3.015625 -10.140625 L 3.015625 -8.21875 L 5.65625 -8.21875 L 5.65625 -7.21875 L 3.015625 -7.21875 L 3.015625 -2.34375 C 3.015625 -1.40625 3.421875 -0.9375 4.234375 -0.9375 C 4.679688 -0.9375 5.066406 -1.054688 5.390625 -1.296875 Z M 5.546875 -1.296875 "/></g></g></g><g clip-path="url(#0025958526)"><path fill="#2196f3" d="M 599.828125 25.804688 C 598.746094 24.613281 597.472656 23.691406 596.003906 23.042969 C 594.535156 22.394531 592.996094 22.070312 591.386719 22.074219 L 113.691406 22.074219 C 112.894531 22.070312 112.105469 22.148438 111.324219 22.308594 C 110.542969 22.472656 109.789062 22.710938 109.058594 23.035156 C 108.328125 23.355469 107.640625 23.746094 106.992188 24.210938 C 106.347656 24.675781 105.753906 25.207031 105.21875 25.796875 C 104.683594 26.382812 104.214844 27.023438 103.8125 27.710938 C 103.410156 28.402344 103.082031 29.121094 102.832031 29.878906 C 102.585938 30.636719 102.414062 31.410156 102.328125 32.203125 C 102.242188 32.996094 102.238281 33.789062 102.316406 34.582031 L 147.8125 489.4375 C 147.921875 490.527344 148.179688 491.582031 148.59375 492.597656 C 149.007812 493.613281 149.554688 494.550781 150.238281 495.410156 C 150.921875 496.265625 151.714844 497.007812 152.613281 497.636719 C 153.515625 498.265625 154.484375 498.753906 155.523438 499.101562 L 360.25 567.332031 C 361.441406 567.714844 362.664062 567.90625 363.914062 567.898438 C 365.292969 567.898438 366.625 567.65625 367.917969 567.171875 L 549.898438 498.941406 C 550.894531 498.574219 551.820312 498.074219 552.679688 497.449219 C 553.535156 496.820312 554.289062 496.085938 554.941406 495.242188 C 555.59375 494.402344 556.117188 493.492188 556.511719 492.503906 C 556.90625 491.515625 557.160156 490.496094 557.265625 489.4375 L 602.761719 34.582031 C 602.917969 32.976562 602.738281 31.410156 602.226562 29.878906 C 601.71875 28.351562 600.917969 26.992188 599.828125 25.804688 Z M 599.828125 25.804688 " fill-opacity="1" fill-rule="nonzero"/></g><path fill="#fafafa" d="M 363.914062 454.183594 C 362.6875 454.183594 361.488281 453.996094 360.320312 453.617188 L 257.957031 419.503906 C 257.007812 419.1875 256.117188 418.753906 255.28125 418.203125 C 254.445312 417.652344 253.699219 417 253.035156 416.253906 C 252.371094 415.503906 251.816406 414.679688 251.371094 413.785156 C 250.925781 412.890625 250.601562 411.953125 250.402344 410.972656 L 239.03125 354.117188 C 238.878906 353.386719 238.804688 352.644531 238.800781 351.898438 C 238.796875 351.152344 238.863281 350.410156 239.007812 349.679688 C 239.148438 348.945312 239.359375 348.234375 239.644531 347.542969 C 239.925781 346.851562 240.273438 346.191406 240.683594 345.570312 C 241.097656 344.945312 241.566406 344.367188 242.089844 343.839844 C 242.617188 343.308594 243.1875 342.832031 243.808594 342.414062 C 244.425781 341.996094 245.082031 341.640625 245.769531 341.351562 C 246.457031 341.0625 247.167969 340.84375 247.902344 340.695312 C 248.632812 340.546875 249.371094 340.46875 250.121094 340.464844 C 250.867188 340.460938 251.605469 340.53125 252.339844 340.671875 C 253.074219 340.816406 253.785156 341.027344 254.476562 341.308594 C 255.167969 341.59375 255.828125 341.941406 256.449219 342.351562 C 257.074219 342.765625 257.652344 343.234375 258.179688 343.757812 C 258.710938 344.285156 259.1875 344.855469 259.605469 345.476562 C 260.023438 346.09375 260.375 346.75 260.664062 347.4375 C 260.953125 348.125 261.171875 348.835938 261.324219 349.570312 L 271.398438 399.945312 L 363.6875 430.761719 L 444.804688 400.351562 L 486.886719 158.53125 L 227.429688 158.53125 C 226.683594 158.53125 225.941406 158.457031 225.210938 158.3125 C 224.476562 158.164062 223.765625 157.949219 223.078125 157.664062 C 222.386719 157.378906 221.730469 157.027344 221.109375 156.613281 C 220.488281 156.199219 219.914062 155.726562 219.386719 155.199219 C 218.859375 154.671875 218.386719 154.097656 217.972656 153.476562 C 217.558594 152.855469 217.207031 152.199219 216.921875 151.511719 C 216.636719 150.820312 216.417969 150.109375 216.273438 149.375 C 216.128906 148.644531 216.054688 147.90625 216.054688 147.15625 C 216.054688 146.410156 216.128906 145.671875 216.273438 144.941406 C 216.417969 144.207031 216.636719 143.496094 216.921875 142.804688 C 217.207031 142.117188 217.558594 141.460938 217.972656 140.839844 C 218.386719 140.21875 218.859375 139.644531 219.386719 139.117188 C 219.914062 138.589844 220.488281 138.117188 221.109375 137.703125 C 221.730469 137.289062 222.386719 136.9375 223.078125 136.652344 C 223.765625 136.367188 224.476562 136.152344 225.210938 136.003906 C 225.941406 135.859375 226.683594 135.785156 227.429688 135.785156 L 500.398438 135.785156 C 500.8125 135.785156 501.226562 135.808594 501.636719 135.851562 C 502.046875 135.898438 502.457031 135.964844 502.859375 136.054688 C 503.261719 136.144531 503.660156 136.253906 504.054688 136.386719 C 504.445312 136.519531 504.828125 136.671875 505.203125 136.847656 C 505.578125 137.019531 505.945312 137.214844 506.296875 137.429688 C 506.652344 137.644531 506.992188 137.875 507.320312 138.128906 C 507.648438 138.378906 507.964844 138.648438 508.261719 138.933594 C 508.5625 139.21875 508.84375 139.519531 509.113281 139.835938 C 509.378906 140.152344 509.625 140.484375 509.855469 140.828125 C 510.085938 141.171875 510.296875 141.527344 510.488281 141.894531 C 510.679688 142.261719 510.851562 142.636719 511.003906 143.023438 C 511.152344 143.40625 511.28125 143.800781 511.390625 144.199219 C 511.5 144.597656 511.582031 145.003906 511.648438 145.410156 C 511.710938 145.820312 511.753906 146.230469 511.769531 146.644531 C 511.789062 147.058594 511.785156 147.46875 511.757812 147.882812 C 511.734375 148.296875 511.683594 148.707031 511.613281 149.113281 L 466.117188 410.65625 C 465.945312 411.632812 465.652344 412.566406 465.238281 413.46875 C 464.824219 414.367188 464.300781 415.195312 463.667969 415.957031 C 463.035156 416.71875 462.316406 417.386719 461.507812 417.960938 C 460.703125 418.535156 459.835938 418.996094 458.90625 419.34375 L 367.917969 453.457031 C 366.625 453.941406 365.292969 454.183594 363.914062 454.183594 Z M 363.914062 454.183594 " fill-opacity="1" fill-rule="nonzero"/><path fill="#fafafa" d="M 477.652344 272.242188 L 238.800781 272.242188 C 238.054688 272.242188 237.316406 272.171875 236.582031 272.023438 C 235.851562 271.878906 235.140625 271.664062 234.449219 271.378906 C 233.761719 271.09375 233.105469 270.742188 232.484375 270.328125 C 231.863281 269.914062 231.289062 269.441406 230.761719 268.914062 C 230.230469 268.386719 229.761719 267.808594 229.34375 267.191406 C 228.929688 266.570312 228.582031 265.914062 228.292969 265.222656 C 228.007812 264.535156 227.792969 263.824219 227.648438 263.089844 C 227.5 262.359375 227.429688 261.617188 227.429688 260.871094 C 227.429688 260.125 227.5 259.386719 227.648438 258.652344 C 227.792969 257.921875 228.007812 257.210938 228.292969 256.519531 C 228.582031 255.832031 228.929688 255.175781 229.34375 254.554688 C 229.761719 253.933594 230.230469 253.359375 230.761719 252.832031 C 231.289062 252.304688 231.863281 251.832031 232.484375 251.417969 C 233.105469 251.003906 233.761719 250.652344 234.449219 250.367188 C 235.140625 250.082031 235.851562 249.863281 236.582031 249.71875 C 237.316406 249.574219 238.054688 249.5 238.800781 249.5 L 477.652344 249.5 C 478.398438 249.5 479.136719 249.574219 479.871094 249.71875 C 480.601562 249.863281 481.3125 250.082031 482.003906 250.367188 C 482.695312 250.652344 483.347656 251.003906 483.96875 251.417969 C 484.589844 251.832031 485.164062 252.304688 485.691406 252.832031 C 486.222656 253.359375 486.691406 253.933594 487.109375 254.554688 C 487.523438 255.175781 487.871094 255.832031 488.160156 256.519531 C 488.445312 257.210938 488.660156 257.921875 488.804688 258.652344 C 488.953125 259.386719 489.023438 260.125 489.023438 260.871094 C 489.023438 261.617188 488.953125 262.359375 488.804688 263.089844 C 488.660156 263.824219 488.445312 264.535156 488.160156 265.222656 C 487.871094 265.914062 487.523438 266.570312 487.109375 267.191406 C 486.691406 267.808594 486.222656 268.386719 485.691406 268.914062 C 485.164062 269.441406 484.589844 269.914062 483.96875 270.328125 C 483.347656 270.742188 482.695312 271.09375 482.003906 271.378906 C 481.3125 271.664062 480.601562 271.878906 479.871094 272.023438 C 479.136719 272.171875 478.398438 272.242188 477.652344 272.242188 Z M 477.652344 272.242188 " fill-opacity="1" fill-rule="nonzero"/></svg>