<svg xmlns="http://www.w3.org/2000/svg" xmlns:xlink="http://www.w3.org/1999/xlink" width="940" zoomAndPan="magnify" viewBox="0 0 705 591.000005" height="788" preserveAspectRatio="xMidYMid meet" version="1.0"><defs><g/><clipPath id="d0855d3cf9"><path d="M 45.128906 133 L 659.839844 133 L 659.839844 497.757812 L 45.128906 497.757812 Z M 45.128906 133 " clip-rule="nonzero"/></clipPath></defs><g fill="#ffffff" fill-opacity="1"><g transform="translate(263.316136, 269.332427)"><g><path d="M 9.796875 0 L 8.421875 0 L 7.421875 -2.984375 L 2.78125 -2.984375 L 1.765625 0 L 0.4375 0 L 4.21875 -10.875 L 6 -10.875 Z M 5 -9.5625 L 3.140625 -4.046875 L 7.046875 -4.046875 L 5.1875 -9.5625 Z M 5 -9.5625 "/></g></g><g transform="translate(273.536323, 269.332427)"><g><path d="M 4.25 0.15625 C 3.59375 0.15625 3.007812 0 2.5 -0.3125 C 2 -0.625 1.609375 -1.097656 1.328125 -1.734375 C 1.046875 -2.367188 0.90625 -3.15625 0.90625 -4.09375 C 0.90625 -5.03125 1.050781 -5.816406 1.34375 -6.453125 C 1.644531 -7.097656 2.054688 -7.578125 2.578125 -7.890625 C 3.097656 -8.203125 3.703125 -8.359375 4.390625 -8.359375 C 4.941406 -8.359375 5.4375 -8.253906 5.875 -8.046875 C 6.3125 -7.847656 6.6875 -7.507812 7 -7.03125 L 7.15625 -7.0625 L 7.15625 -11.5 L 8.359375 -11.5 L 8.359375 0 L 7.15625 0 L 7.15625 -1.203125 L 7 -1.234375 C 6.726562 -0.828125 6.363281 -0.492188 5.90625 -0.234375 C 5.445312 0.0234375 4.894531 0.15625 4.25 0.15625 Z M 4.640625 -0.9375 C 5.398438 -0.9375 6.007812 -1.195312 6.46875 -1.71875 C 6.925781 -2.238281 7.15625 -3.03125 7.15625 -4.09375 C 7.15625 -5.164062 6.925781 -5.960938 6.46875 -6.484375 C 6.007812 -7.015625 5.398438 -7.28125 4.640625 -7.28125 C 3.847656 -7.28125 3.238281 -7.023438 2.8125 -6.515625 C 2.382812 -6.003906 2.171875 -5.195312 2.171875 -4.09375 C 2.171875 -1.988281 2.992188 -0.9375 4.640625 -0.9375 Z M 4.640625 -0.9375 "/></g></g><g transform="translate(283.33253, 269.332427)"><g><path d="M 4.25 0.15625 C 3.59375 0.15625 3.007812 0 2.5 -0.3125 C 2 -0.625 1.609375 -1.097656 1.328125 -1.734375 C 1.046875 -2.367188 0.90625 -3.15625 0.90625 -4.09375 C 0.90625 -5.03125 1.050781 -5.816406 1.34375 -6.453125 C 1.644531 -7.097656 2.054688 -7.578125 2.578125 -7.890625 C 3.097656 -8.203125 3.703125 -8.359375 4.390625 -8.359375 C 4.941406 -8.359375 5.4375 -8.253906 5.875 -8.046875 C 6.3125 -7.847656 6.6875 -7.507812 7 -7.03125 L 7.15625 -7.0625 L 7.15625 -11.5 L 8.359375 -11.5 L 8.359375 0 L 7.15625 0 L 7.15625 -1.203125 L 7 -1.234375 C 6.726562 -0.828125 6.363281 -0.492188 5.90625 -0.234375 C 5.445312 0.0234375 4.894531 0.15625 4.25 0.15625 Z M 4.640625 -0.9375 C 5.398438 -0.9375 6.007812 -1.195312 6.46875 -1.71875 C 6.925781 -2.238281 7.15625 -3.03125 7.15625 -4.09375 C 7.15625 -5.164062 6.925781 -5.960938 6.46875 -6.484375 C 6.007812 -7.015625 5.398438 -7.28125 4.640625 -7.28125 C 3.847656 -7.28125 3.238281 -7.023438 2.8125 -6.515625 C 2.382812 -6.003906 2.171875 -5.195312 2.171875 -4.09375 C 2.171875 -1.988281 2.992188 -0.9375 4.640625 -0.9375 Z M 4.640625 -0.9375 "/></g></g><g transform="translate(293.128736, 269.332427)"><g/></g><g transform="translate(296.862749, 269.332427)"><g><path d="M 3.390625 0.15625 C 2.578125 0.15625 1.941406 -0.0507812 1.484375 -0.46875 C 1.035156 -0.894531 0.8125 -1.5 0.8125 -2.28125 C 0.8125 -2.769531 0.910156 -3.179688 1.109375 -3.515625 C 1.304688 -3.847656 1.613281 -4.117188 2.03125 -4.328125 C 2.457031 -4.546875 3.015625 -4.707031 3.703125 -4.8125 C 4.296875 -4.914062 4.742188 -5.03125 5.046875 -5.15625 C 5.359375 -5.28125 5.566406 -5.414062 5.671875 -5.5625 C 5.785156 -5.71875 5.84375 -5.914062 5.84375 -6.15625 C 5.84375 -6.519531 5.710938 -6.800781 5.453125 -7 C 5.203125 -7.207031 4.789062 -7.3125 4.21875 -7.3125 C 3.6875 -7.3125 3.234375 -7.207031 2.859375 -7 C 2.484375 -6.789062 2.132812 -6.484375 1.8125 -6.078125 L 1.671875 -6.078125 L 1.078125 -6.921875 C 1.421875 -7.359375 1.859375 -7.707031 2.390625 -7.96875 C 2.929688 -8.226562 3.539062 -8.359375 4.21875 -8.359375 C 5.1875 -8.359375 5.898438 -8.144531 6.359375 -7.71875 C 6.816406 -7.300781 7.046875 -6.71875 7.046875 -5.96875 L 7.046875 -1.609375 C 7.046875 -1.160156 7.238281 -0.9375 7.625 -0.9375 C 7.757812 -0.9375 7.882812 -0.957031 8 -1 L 8.109375 -0.96875 L 8.25 -0.125 C 8.15625 -0.0625 8.035156 -0.015625 7.890625 0.015625 C 7.742188 0.046875 7.597656 0.0625 7.453125 0.0625 C 6.992188 0.0625 6.648438 -0.0351562 6.421875 -0.234375 C 6.191406 -0.429688 6.046875 -0.722656 5.984375 -1.109375 L 5.828125 -1.125 C 5.585938 -0.695312 5.269531 -0.375 4.875 -0.15625 C 4.476562 0.0507812 3.984375 0.15625 3.390625 0.15625 Z M 3.65625 -0.8125 C 4.113281 -0.8125 4.507812 -0.914062 4.84375 -1.125 C 5.175781 -1.332031 5.429688 -1.628906 5.609375 -2.015625 C 5.785156 -2.398438 5.875 -2.84375 5.875 -3.34375 L 5.875 -4.375 L 5.734375 -4.40625 C 5.546875 -4.28125 5.320312 -4.171875 5.0625 -4.078125 C 4.800781 -3.992188 4.4375 -3.921875 3.96875 -3.859375 C 3.488281 -3.785156 3.109375 -3.679688 2.828125 -3.546875 C 2.546875 -3.421875 2.34375 -3.253906 2.21875 -3.046875 C 2.101562 -2.835938 2.046875 -2.582031 2.046875 -2.28125 C 2.046875 -1.800781 2.1875 -1.4375 2.46875 -1.1875 C 2.757812 -0.9375 3.15625 -0.8125 3.65625 -0.8125 Z M 3.65625 -0.8125 "/></g></g><g transform="translate(305.349819, 269.332427)"><g/></g><g transform="translate(309.083833, 269.332427)"><g><path d="M 3.265625 0.15625 C 2.679688 0.15625 2.222656 -0.00390625 1.890625 -0.328125 C 1.566406 -0.660156 1.40625 -1.15625 1.40625 -1.8125 L 1.40625 -11.5 L 2.609375 -11.5 L 2.609375 -1.890625 C 2.609375 -1.554688 2.671875 -1.3125 2.796875 -1.15625 C 2.929688 -1.007812 3.140625 -0.9375 3.421875 -0.9375 C 3.585938 -0.9375 3.757812 -0.960938 3.9375 -1.015625 L 4.046875 -0.984375 L 4.1875 -0.03125 C 4.09375 0.03125 3.960938 0.078125 3.796875 0.109375 C 3.628906 0.140625 3.453125 0.15625 3.265625 0.15625 Z M 3.265625 0.15625 "/></g></g><g transform="translate(313.546797, 269.332427)"><g><path d="M 2.03125 -9.796875 C 1.78125 -9.796875 1.570312 -9.875 1.40625 -10.03125 C 1.25 -10.1875 1.171875 -10.390625 1.171875 -10.640625 C 1.171875 -10.890625 1.25 -11.09375 1.40625 -11.25 C 1.570312 -11.414062 1.78125 -11.5 2.03125 -11.5 C 2.289062 -11.5 2.5 -11.414062 2.65625 -11.25 C 2.820312 -11.09375 2.90625 -10.890625 2.90625 -10.640625 C 2.90625 -10.390625 2.820312 -10.1875 2.65625 -10.03125 C 2.5 -9.875 2.289062 -9.796875 2.03125 -9.796875 Z M 1.421875 0 L 1.421875 -8.203125 L 2.640625 -8.203125 L 2.640625 0 Z M 1.421875 0 "/></g></g><g transform="translate(317.615532, 269.332427)"><g><path d="M 5.546875 -1.296875 L 5.9375 -0.4375 C 5.738281 -0.238281 5.484375 -0.09375 5.171875 0 C 4.859375 0.101562 4.519531 0.15625 4.15625 0.15625 C 2.582031 0.15625 1.796875 -0.632812 1.796875 -2.21875 L 1.796875 -7.21875 L 0.375 -7.21875 L 0.375 -8.21875 L 1.796875 -8.21875 L 1.796875 -9.953125 L 3.015625 -10.140625 L 3.015625 -8.21875 L 5.65625 -8.21875 L 5.65625 -7.21875 L 3.015625 -7.21875 L 3.015625 -2.34375 C 3.015625 -1.40625 3.421875 -0.9375 4.234375 -0.9375 C 4.679688 -0.9375 5.066406 -1.054688 5.390625 -1.296875 Z M 5.546875 -1.296875 "/></g></g><g transform="translate(323.863682, 269.332427)"><g><path d="M 5.546875 -1.296875 L 5.9375 -0.4375 C 5.738281 -0.238281 5.484375 -0.09375 5.171875 0 C 4.859375 0.101562 4.519531 0.15625 4.15625 0.15625 C 2.582031 0.15625 1.796875 -0.632812 1.796875 -2.21875 L 1.796875 -7.21875 L 0.375 -7.21875 L 0.375 -8.21875 L 1.796875 -8.21875 L 1.796875 -9.953125 L 3.015625 -10.140625 L 3.015625 -8.21875 L 5.65625 -8.21875 L 5.65625 -7.21875 L 3.015625 -7.21875 L 3.015625 -2.34375 C 3.015625 -1.40625 3.421875 -0.9375 4.234375 -0.9375 C 4.679688 -0.9375 5.066406 -1.054688 5.390625 -1.296875 Z M 5.546875 -1.296875 "/></g></g><g transform="translate(330.111832, 269.332427)"><g><path d="M 3.265625 0.15625 C 2.679688 0.15625 2.222656 -0.00390625 1.890625 -0.328125 C 1.566406 -0.660156 1.40625 -1.15625 1.40625 -1.8125 L 1.40625 -11.5 L 2.609375 -11.5 L 2.609375 -1.890625 C 2.609375 -1.554688 2.671875 -1.3125 2.796875 -1.15625 C 2.929688 -1.007812 3.140625 -0.9375 3.421875 -0.9375 C 3.585938 -0.9375 3.757812 -0.960938 3.9375 -1.015625 L 4.046875 -0.984375 L 4.1875 -0.03125 C 4.09375 0.03125 3.960938 0.078125 3.796875 0.109375 C 3.628906 0.140625 3.453125 0.15625 3.265625 0.15625 Z M 3.265625 0.15625 "/></g></g><g transform="translate(334.574796, 269.332427)"><g><path d="M 7.8125 -3.828125 L 2.171875 -3.828125 C 2.210938 -2.828125 2.453125 -2.09375 2.890625 -1.625 C 3.335938 -1.164062 3.945312 -0.9375 4.71875 -0.9375 C 5.300781 -0.9375 5.769531 -1.035156 6.125 -1.234375 C 6.488281 -1.441406 6.773438 -1.769531 6.984375 -2.21875 L 7.140625 -2.21875 L 7.921875 -1.75 C 7.679688 -1.15625 7.300781 -0.6875 6.78125 -0.34375 C 6.257812 -0.0078125 5.570312 0.15625 4.71875 0.15625 C 3.925781 0.15625 3.242188 0 2.671875 -0.3125 C 2.109375 -0.625 1.671875 -1.097656 1.359375 -1.734375 C 1.054688 -2.367188 0.90625 -3.15625 0.90625 -4.09375 C 0.90625 -5.03125 1.066406 -5.816406 1.390625 -6.453125 C 1.710938 -7.097656 2.15625 -7.578125 2.71875 -7.890625 C 3.28125 -8.203125 3.925781 -8.359375 4.65625 -8.359375 C 5.695312 -8.359375 6.515625 -8.0625 7.109375 -7.46875 C 7.703125 -6.875 8 -5.992188 8 -4.828125 C 8 -4.378906 7.988281 -4.070312 7.96875 -3.90625 Z M 6.8125 -4.828125 C 6.789062 -5.703125 6.59375 -6.335938 6.21875 -6.734375 C 5.851562 -7.128906 5.332031 -7.328125 4.65625 -7.328125 C 3.9375 -7.328125 3.367188 -7.128906 2.953125 -6.734375 C 2.546875 -6.335938 2.296875 -5.703125 2.203125 -4.828125 Z M 6.8125 -4.828125 "/></g></g><g transform="translate(343.322205, 269.332427)"><g/></g><g transform="translate(347.056219, 269.332427)"><g><path d="M 5.453125 0.15625 C 4.835938 0.15625 4.304688 0.0390625 3.859375 -0.1875 C 3.410156 -0.425781 3.054688 -0.738281 2.796875 -1.125 L 2.640625 -1.09375 L 2.640625 0 L 1.421875 0 L 1.421875 -11.5 L 2.640625 -11.5 L 2.640625 -6.984375 L 2.796875 -6.953125 C 3.421875 -7.890625 4.328125 -8.359375 5.515625 -8.359375 C 6.191406 -8.359375 6.78125 -8.203125 7.28125 -7.890625 C 7.789062 -7.578125 8.1875 -7.101562 8.46875 -6.46875 C 8.75 -5.832031 8.890625 -5.039062 8.890625 -4.09375 C 8.890625 -3.164062 8.738281 -2.378906 8.4375 -1.734375 C 8.144531 -1.097656 7.738281 -0.625 7.21875 -0.3125 C 6.707031 0 6.117188 0.15625 5.453125 0.15625 Z M 5.15625 -0.9375 C 6.800781 -0.9375 7.625 -1.988281 7.625 -4.09375 C 7.625 -5.195312 7.410156 -6.003906 6.984375 -6.515625 C 6.554688 -7.023438 5.945312 -7.28125 5.15625 -7.28125 C 4.394531 -7.28125 3.785156 -7.015625 3.328125 -6.484375 C 2.867188 -5.960938 2.640625 -5.164062 2.640625 -4.09375 C 2.640625 -3.03125 2.867188 -2.238281 3.328125 -1.71875 C 3.785156 -1.195312 4.394531 -0.9375 5.15625 -0.9375 Z M 5.15625 -0.9375 "/></g></g><g transform="translate(356.844987, 269.332427)"><g><path d="M 2.03125 -9.796875 C 1.78125 -9.796875 1.570312 -9.875 1.40625 -10.03125 C 1.25 -10.1875 1.171875 -10.390625 1.171875 -10.640625 C 1.171875 -10.890625 1.25 -11.09375 1.40625 -11.25 C 1.570312 -11.414062 1.78125 -11.5 2.03125 -11.5 C 2.289062 -11.5 2.5 -11.414062 2.65625 -11.25 C 2.820312 -11.09375 2.90625 -10.890625 2.90625 -10.640625 C 2.90625 -10.390625 2.820312 -10.1875 2.65625 -10.03125 C 2.5 -9.875 2.289062 -9.796875 2.03125 -9.796875 Z M 1.421875 0 L 1.421875 -8.203125 L 2.640625 -8.203125 L 2.640625 0 Z M 1.421875 0 "/></g></g><g transform="translate(360.913722, 269.332427)"><g><path d="M 5.546875 -1.296875 L 5.9375 -0.4375 C 5.738281 -0.238281 5.484375 -0.09375 5.171875 0 C 4.859375 0.101562 4.519531 0.15625 4.15625 0.15625 C 2.582031 0.15625 1.796875 -0.632812 1.796875 -2.21875 L 1.796875 -7.21875 L 0.375 -7.21875 L 0.375 -8.21875 L 1.796875 -8.21875 L 1.796875 -9.953125 L 3.015625 -10.140625 L 3.015625 -8.21875 L 5.65625 -8.21875 L 5.65625 -7.21875 L 3.015625 -7.21875 L 3.015625 -2.34375 C 3.015625 -1.40625 3.421875 -0.9375 4.234375 -0.9375 C 4.679688 -0.9375 5.066406 -1.054688 5.390625 -1.296875 Z M 5.546875 -1.296875 "/></g></g><g transform="translate(367.161872, 269.332427)"><g/></g><g transform="translate(370.895885, 269.332427)"><g><path d="M 4.703125 0.15625 C 3.929688 0.15625 3.257812 -0.00390625 2.6875 -0.328125 C 2.113281 -0.660156 1.671875 -1.144531 1.359375 -1.78125 C 1.054688 -2.414062 0.90625 -3.1875 0.90625 -4.09375 C 0.90625 -5 1.054688 -5.769531 1.359375 -6.40625 C 1.671875 -7.050781 2.113281 -7.535156 2.6875 -7.859375 C 3.257812 -8.191406 3.929688 -8.359375 4.703125 -8.359375 C 5.484375 -8.359375 6.160156 -8.191406 6.734375 -7.859375 C 7.304688 -7.535156 7.742188 -7.050781 8.046875 -6.40625 C 8.359375 -5.769531 8.515625 -5 8.515625 -4.09375 C 8.515625 -3.1875 8.359375 -2.414062 8.046875 -1.78125 C 7.742188 -1.144531 7.304688 -0.660156 6.734375 -0.328125 C 6.160156 -0.00390625 5.484375 0.15625 4.703125 0.15625 Z M 4.703125 -0.9375 C 5.523438 -0.9375 6.148438 -1.191406 6.578125 -1.703125 C 7.015625 -2.222656 7.234375 -3.019531 7.234375 -4.09375 C 7.234375 -5.1875 7.015625 -5.988281 6.578125 -6.5 C 6.148438 -7.019531 5.523438 -7.28125 4.703125 -7.28125 C 3.890625 -7.28125 3.265625 -7.019531 2.828125 -6.5 C 2.390625 -5.976562 2.171875 -5.175781 2.171875 -4.09375 C 2.171875 -3.019531 2.390625 -2.222656 2.828125 -1.703125 C 3.265625 -1.191406 3.890625 -0.9375 4.703125 -0.9375 Z M 4.703125 -0.9375 "/></g></g><g transform="translate(380.312739, 269.332427)"><g><path d="M 1.828125 0 L 1.828125 -7.21875 L 0.40625 -7.21875 L 0.40625 -8.21875 L 1.828125 -8.21875 C 1.742188 -8.570312 1.703125 -8.910156 1.703125 -9.234375 C 1.703125 -9.765625 1.8125 -10.210938 2.03125 -10.578125 C 2.257812 -10.941406 2.570312 -11.210938 2.96875 -11.390625 C 3.375 -11.566406 3.835938 -11.65625 4.359375 -11.65625 C 5.179688 -11.65625 5.8125 -11.476562 6.25 -11.125 L 5.78125 -10.265625 L 5.625 -10.25 C 5.300781 -10.5 4.878906 -10.625 4.359375 -10.625 C 3.878906 -10.625 3.515625 -10.5 3.265625 -10.25 C 3.023438 -10.007812 2.90625 -9.660156 2.90625 -9.203125 C 2.90625 -8.921875 2.953125 -8.59375 3.046875 -8.21875 L 5.65625 -8.21875 L 5.65625 -7.21875 L 3.046875 -7.21875 L 3.046875 0 Z M 1.828125 0 "/></g></g><g transform="translate(386.159222, 269.332427)"><g/></g><g transform="translate(389.893235, 269.332427)"><g><path d="M 5.453125 0.15625 C 4.835938 0.15625 4.304688 0.0390625 3.859375 -0.1875 C 3.410156 -0.425781 3.054688 -0.738281 2.796875 -1.125 L 2.640625 -1.09375 L 2.640625 0 L 1.421875 0 L 1.421875 -11.5 L 2.640625 -11.5 L 2.640625 -6.984375 L 2.796875 -6.953125 C 3.421875 -7.890625 4.328125 -8.359375 5.515625 -8.359375 C 6.191406 -8.359375 6.78125 -8.203125 7.28125 -7.890625 C 7.789062 -7.578125 8.1875 -7.101562 8.46875 -6.46875 C 8.75 -5.832031 8.890625 -5.039062 8.890625 -4.09375 C 8.890625 -3.164062 8.738281 -2.378906 8.4375 -1.734375 C 8.144531 -1.097656 7.738281 -0.625 7.21875 -0.3125 C 6.707031 0 6.117188 0.15625 5.453125 0.15625 Z M 5.15625 -0.9375 C 6.800781 -0.9375 7.625 -1.988281 7.625 -4.09375 C 7.625 -5.195312 7.410156 -6.003906 6.984375 -6.515625 C 6.554688 -7.023438 5.945312 -7.28125 5.15625 -7.28125 C 4.394531 -7.28125 3.785156 -7.015625 3.328125 -6.484375 C 2.867188 -5.960938 2.640625 -5.164062 2.640625 -4.09375 C 2.640625 -3.03125 2.867188 -2.238281 3.328125 -1.71875 C 3.785156 -1.195312 4.394531 -0.9375 5.15625 -0.9375 Z M 5.15625 -0.9375 "/></g></g><g transform="translate(399.682003, 269.332427)"><g><path d="M 4.703125 0.15625 C 3.929688 0.15625 3.257812 -0.00390625 2.6875 -0.328125 C 2.113281 -0.660156 1.671875 -1.144531 1.359375 -1.78125 C 1.054688 -2.414062 0.90625 -3.1875 0.90625 -4.09375 C 0.90625 -5 1.054688 -5.769531 1.359375 -6.40625 C 1.671875 -7.050781 2.113281 -7.535156 2.6875 -7.859375 C 3.257812 -8.191406 3.929688 -8.359375 4.703125 -8.359375 C 5.484375 -8.359375 6.160156 -8.191406 6.734375 -7.859375 C 7.304688 -7.535156 7.742188 -7.050781 8.046875 -6.40625 C 8.359375 -5.769531 8.515625 -5 8.515625 -4.09375 C 8.515625 -3.1875 8.359375 -2.414062 8.046875 -1.78125 C 7.742188 -1.144531 7.304688 -0.660156 6.734375 -0.328125 C 6.160156 -0.00390625 5.484375 0.15625 4.703125 0.15625 Z M 4.703125 -0.9375 C 5.523438 -0.9375 6.148438 -1.191406 6.578125 -1.703125 C 7.015625 -2.222656 7.234375 -3.019531 7.234375 -4.09375 C 7.234375 -5.1875 7.015625 -5.988281 6.578125 -6.5 C 6.148438 -7.019531 5.523438 -7.28125 4.703125 -7.28125 C 3.890625 -7.28125 3.265625 -7.019531 2.828125 -6.5 C 2.390625 -5.976562 2.171875 -5.175781 2.171875 -4.09375 C 2.171875 -3.019531 2.390625 -2.222656 2.828125 -1.703125 C 3.265625 -1.191406 3.890625 -0.9375 4.703125 -0.9375 Z M 4.703125 -0.9375 "/></g></g><g transform="translate(409.098858, 269.332427)"><g><path d="M 4.25 0.15625 C 3.59375 0.15625 3.007812 0 2.5 -0.3125 C 2 -0.625 1.609375 -1.097656 1.328125 -1.734375 C 1.046875 -2.367188 0.90625 -3.15625 0.90625 -4.09375 C 0.90625 -5.03125 1.050781 -5.816406 1.34375 -6.453125 C 1.644531 -7.097656 2.054688 -7.578125 2.578125 -7.890625 C 3.097656 -8.203125 3.703125 -8.359375 4.390625 -8.359375 C 4.941406 -8.359375 5.4375 -8.253906 5.875 -8.046875 C 6.3125 -7.847656 6.6875 -7.507812 7 -7.03125 L 7.15625 -7.0625 L 7.15625 -11.5 L 8.359375 -11.5 L 8.359375 0 L 7.15625 0 L 7.15625 -1.203125 L 7 -1.234375 C 6.726562 -0.828125 6.363281 -0.492188 5.90625 -0.234375 C 5.445312 0.0234375 4.894531 0.15625 4.25 0.15625 Z M 4.640625 -0.9375 C 5.398438 -0.9375 6.007812 -1.195312 6.46875 -1.71875 C 6.925781 -2.238281 7.15625 -3.03125 7.15625 -4.09375 C 7.15625 -5.164062 6.925781 -5.960938 6.46875 -6.484375 C 6.007812 -7.015625 5.398438 -7.28125 4.640625 -7.28125 C 3.847656 -7.28125 3.238281 -7.023438 2.8125 -6.515625 C 2.382812 -6.003906 2.171875 -5.195312 2.171875 -4.09375 C 2.171875 -1.988281 2.992188 -0.9375 4.640625 -0.9375 Z M 4.640625 -0.9375 "/></g></g><g transform="translate(418.895064, 269.332427)"><g><path d="M 1.640625 3.484375 C 1.367188 3.484375 1.109375 3.457031 0.859375 3.40625 C 0.617188 3.363281 0.414062 3.300781 0.25 3.21875 L 0.46875 2.25 L 0.609375 2.203125 C 0.722656 2.265625 0.867188 2.316406 1.046875 2.359375 C 1.222656 2.398438 1.40625 2.421875 1.59375 2.421875 C 1.925781 2.421875 2.203125 2.375 2.421875 2.28125 C 2.640625 2.195312 2.828125 2.050781 2.984375 1.84375 C 3.140625 1.644531 3.285156 1.363281 3.421875 1 L 3.71875 0.1875 L 0.421875 -8.203125 L 1.71875 -8.203125 L 4.3125 -1.515625 L 4.453125 -1.515625 L 6.953125 -8.203125 L 8.1875 -8.203125 L 4.515625 1.28125 C 4.304688 1.8125 4.070312 2.234375 3.8125 2.546875 C 3.5625 2.867188 3.257812 3.101562 2.90625 3.25 C 2.550781 3.40625 2.128906 3.484375 1.640625 3.484375 Z M 1.640625 3.484375 "/></g></g><g transform="translate(427.545776, 269.332427)"><g/></g><g transform="translate(431.279789, 269.332427)"><g><path d="M 5.546875 -1.296875 L 5.9375 -0.4375 C 5.738281 -0.238281 5.484375 -0.09375 5.171875 0 C 4.859375 0.101562 4.519531 0.15625 4.15625 0.15625 C 2.582031 0.15625 1.796875 -0.632812 1.796875 -2.21875 L 1.796875 -7.21875 L 0.375 -7.21875 L 0.375 -8.21875 L 1.796875 -8.21875 L 1.796875 -9.953125 L 3.015625 -10.140625 L 3.015625 -8.21875 L 5.65625 -8.21875 L 5.65625 -7.21875 L 3.015625 -7.21875 L 3.015625 -2.34375 C 3.015625 -1.40625 3.421875 -0.9375 4.234375 -0.9375 C 4.679688 -0.9375 5.066406 -1.054688 5.390625 -1.296875 Z M 5.546875 -1.296875 "/></g></g><g transform="translate(437.527939, 269.332427)"><g><path d="M 7.8125 -3.828125 L 2.171875 -3.828125 C 2.210938 -2.828125 2.453125 -2.09375 2.890625 -1.625 C 3.335938 -1.164062 3.945312 -0.9375 4.71875 -0.9375 C 5.300781 -0.9375 5.769531 -1.035156 6.125 -1.234375 C 6.488281 -1.441406 6.773438 -1.769531 6.984375 -2.21875 L 7.140625 -2.21875 L 7.921875 -1.75 C 7.679688 -1.15625 7.300781 -0.6875 6.78125 -0.34375 C 6.257812 -0.0078125 5.570312 0.15625 4.71875 0.15625 C 3.925781 0.15625 3.242188 0 2.671875 -0.3125 C 2.109375 -0.625 1.671875 -1.097656 1.359375 -1.734375 C 1.054688 -2.367188 0.90625 -3.15625 0.90625 -4.09375 C 0.90625 -5.03125 1.066406 -5.816406 1.390625 -6.453125 C 1.710938 -7.097656 2.15625 -7.578125 2.71875 -7.890625 C 3.28125 -8.203125 3.925781 -8.359375 4.65625 -8.359375 C 5.695312 -8.359375 6.515625 -8.0625 7.109375 -7.46875 C 7.703125 -6.875 8 -5.992188 8 -4.828125 C 8 -4.378906 7.988281 -4.070312 7.96875 -3.90625 Z M 6.8125 -4.828125 C 6.789062 -5.703125 6.59375 -6.335938 6.21875 -6.734375 C 5.851562 -7.128906 5.332031 -7.328125 4.65625 -7.328125 C 3.9375 -7.328125 3.367188 -7.128906 2.953125 -6.734375 C 2.546875 -6.335938 2.296875 -5.703125 2.203125 -4.828125 Z M 6.8125 -4.828125 "/></g></g><g transform="translate(446.275348, 269.332427)"><g><path d="M 1.703125 0 L 0.375 0 L 2.90625 -4.25 L 0.5 -8.203125 L 1.859375 -8.203125 L 3.765625 -5.046875 L 3.9375 -5.046875 L 5.84375 -8.203125 L 7.15625 -8.203125 L 4.796875 -4.25 L 7.28125 0 L 5.90625 0 L 3.890625 -3.46875 L 3.71875 -3.46875 Z M 1.703125 0 "/></g></g><g transform="translate(453.921894, 269.332427)"><g><path d="M 5.546875 -1.296875 L 5.9375 -0.4375 C 5.738281 -0.238281 5.484375 -0.09375 5.171875 0 C 4.859375 0.101562 4.519531 0.15625 4.15625 0.15625 C 2.582031 0.15625 1.796875 -0.632812 1.796875 -2.21875 L 1.796875 -7.21875 L 0.375 -7.21875 L 0.375 -8.21875 L 1.796875 -8.21875 L 1.796875 -9.953125 L 3.015625 -10.140625 L 3.015625 -8.21875 L 5.65625 -8.21875 L 5.65625 -7.21875 L 3.015625 -7.21875 L 3.015625 -2.34375 C 3.015625 -1.40625 3.421875 -0.9375 4.234375 -0.9375 C 4.679688 -0.9375 5.066406 -1.054688 5.390625 -1.296875 Z M 5.546875 -1.296875 "/></g></g></g><path fill="#ff5757" d="M 312.285156 285.582031 C 313.710938 286.675781 315.183594 287.714844 316.695312 288.6875 C 318.210938 289.664062 319.761719 290.578125 321.347656 291.425781 C 322.9375 292.277344 324.554688 293.058594 326.207031 293.773438 C 327.859375 294.492188 329.539062 295.136719 331.242188 295.71875 C 332.949219 296.296875 334.671875 296.804688 336.417969 297.242188 C 338.167969 297.679688 339.929688 298.046875 341.703125 298.339844 C 343.480469 298.632812 345.265625 298.851562 347.0625 299 C 348.855469 299.148438 350.652344 299.21875 352.453125 299.21875 C 354.253906 299.21875 356.050781 299.148438 357.847656 299 C 359.640625 298.851562 361.425781 298.632812 363.203125 298.339844 C 364.980469 298.046875 366.742188 297.679688 368.488281 297.242188 C 370.234375 296.804688 371.960938 296.296875 373.664062 295.71875 C 375.371094 295.136719 377.046875 294.492188 378.699219 293.773438 C 380.351562 293.058594 381.972656 292.277344 383.558594 291.425781 C 385.148438 290.578125 386.699219 289.664062 388.210938 288.6875 C 389.722656 287.714844 391.195312 286.675781 392.621094 285.582031 L 647.546875 86.949219 C 646.039062 84.800781 644.410156 82.746094 642.65625 80.792969 C 640.902344 78.839844 639.039062 76.996094 637.0625 75.265625 C 635.085938 73.535156 633.015625 71.929688 630.847656 70.445312 C 628.679688 68.964844 626.429688 67.617188 624.101562 66.40625 C 621.773438 65.195312 619.378906 64.125 616.921875 63.203125 C 614.460938 62.277344 611.957031 61.503906 609.40625 60.878906 C 606.855469 60.253906 604.277344 59.785156 601.671875 59.472656 C 599.0625 59.15625 596.445312 59 593.820312 59 L 111.175781 59 C 108.394531 59.007812 105.625 59.1875 102.867188 59.546875 C 100.109375 59.90625 97.386719 60.4375 94.695312 61.140625 C 92.003906 61.84375 89.371094 62.71875 86.792969 63.757812 C 84.210938 64.796875 81.710938 65.992188 79.28125 67.351562 C 76.855469 68.707031 74.523438 70.214844 72.289062 71.867188 C 70.054688 73.519531 67.929688 75.308594 65.921875 77.234375 C 63.914062 79.15625 62.035156 81.199219 60.289062 83.359375 C 58.539062 85.523438 56.933594 87.785156 55.472656 90.152344 Z M 312.285156 285.582031 " fill-opacity="1" fill-rule="nonzero"/><g clip-path="url(#d0855d3cf9)"><path fill="#ff5757" d="M 419.496094 320.351562 C 417.117188 322.179688 414.667969 323.90625 412.148438 325.53125 C 409.628906 327.160156 407.046875 328.679688 404.402344 330.09375 C 401.757812 331.507812 399.058594 332.8125 396.304688 334.003906 C 393.554688 335.199219 390.757812 336.277344 387.917969 337.242188 C 385.078125 338.207031 382.203125 339.054688 379.292969 339.785156 C 376.386719 340.511719 373.449219 341.121094 370.492188 341.609375 C 367.53125 342.097656 364.558594 342.464844 361.566406 342.710938 C 358.578125 342.957031 355.585938 343.078125 352.585938 343.078125 C 349.585938 343.078125 346.589844 342.957031 343.601562 342.710938 C 340.613281 342.464844 337.636719 342.097656 334.679688 341.609375 C 331.71875 341.121094 328.785156 340.511719 325.875 339.785156 C 322.96875 339.054688 320.09375 338.207031 317.253906 337.242188 C 314.410156 336.277344 311.617188 335.199219 308.863281 334.003906 C 306.113281 332.8125 303.414062 331.507812 300.769531 330.09375 C 298.125 328.679688 295.542969 327.160156 293.023438 325.53125 C 290.5 323.90625 288.050781 322.179688 285.671875 320.351562 L 45.359375 137.605469 L 45.359375 431.953125 C 45.359375 433.03125 45.386719 434.109375 45.4375 435.183594 C 45.492188 436.257812 45.570312 437.332031 45.675781 438.40625 C 45.78125 439.476562 45.914062 440.546875 46.070312 441.609375 C 46.230469 442.675781 46.414062 443.738281 46.625 444.792969 C 46.832031 445.851562 47.070312 446.902344 47.332031 447.945312 C 47.59375 448.992188 47.878906 450.027344 48.191406 451.058594 C 48.503906 452.089844 48.84375 453.113281 49.207031 454.125 C 49.570312 455.140625 49.957031 456.144531 50.367188 457.140625 C 50.78125 458.136719 51.21875 459.121094 51.679688 460.09375 C 52.136719 461.066406 52.621094 462.027344 53.128906 462.980469 C 53.636719 463.929688 54.167969 464.867188 54.722656 465.789062 C 55.277344 466.714844 55.851562 467.625 56.449219 468.519531 C 57.050781 469.414062 57.667969 470.296875 58.3125 471.160156 C 58.953125 472.023438 59.613281 472.875 60.296875 473.707031 C 60.980469 474.539062 61.683594 475.355469 62.410156 476.152344 C 63.132812 476.949219 63.875 477.730469 64.636719 478.492188 C 65.398438 479.253906 66.175781 479.996094 66.976562 480.71875 C 67.773438 481.441406 68.589844 482.148438 69.421875 482.828125 C 70.253906 483.511719 71.101562 484.175781 71.96875 484.816406 C 72.832031 485.460938 73.714844 486.078125 74.609375 486.675781 C 75.503906 487.277344 76.414062 487.851562 77.339844 488.40625 C 78.261719 488.960938 79.199219 489.492188 80.148438 489.996094 C 81.097656 490.503906 82.0625 490.988281 83.035156 491.449219 C 84.007812 491.910156 84.992188 492.347656 85.988281 492.757812 C 86.984375 493.171875 87.988281 493.558594 89 493.921875 C 90.015625 494.285156 91.039062 494.621094 92.070312 494.933594 C 93.101562 495.25 94.136719 495.535156 95.183594 495.796875 C 96.226562 496.058594 97.277344 496.292969 98.335938 496.503906 C 99.390625 496.714844 100.453125 496.898438 101.515625 497.058594 C 102.582031 497.214844 103.652344 497.347656 104.722656 497.453125 C 105.796875 497.558594 106.867188 497.636719 107.945312 497.691406 C 109.019531 497.742188 110.097656 497.769531 111.175781 497.769531 L 593.820312 497.769531 C 594.898438 497.769531 595.972656 497.742188 597.050781 497.691406 C 598.125 497.636719 599.199219 497.558594 600.273438 497.453125 C 601.34375 497.347656 602.414062 497.214844 603.476562 497.058594 C 604.542969 496.898438 605.605469 496.714844 606.660156 496.503906 C 607.71875 496.292969 608.765625 496.058594 609.8125 495.796875 C 610.855469 495.535156 611.894531 495.25 612.925781 494.933594 C 613.957031 494.621094 614.980469 494.285156 615.992188 493.921875 C 617.007812 493.558594 618.011719 493.171875 619.007812 492.757812 C 620.003906 492.347656 620.988281 491.910156 621.960938 491.449219 C 622.933594 490.988281 623.894531 490.503906 624.84375 489.996094 C 625.796875 489.492188 626.734375 488.960938 627.65625 488.40625 C 628.582031 487.851562 629.488281 487.277344 630.386719 486.675781 C 631.28125 486.078125 632.160156 485.460938 633.027344 484.816406 C 633.890625 484.175781 634.742188 483.511719 635.574219 482.828125 C 636.40625 482.148438 637.222656 481.441406 638.019531 480.71875 C 638.816406 479.996094 639.597656 479.253906 640.359375 478.492188 C 641.121094 477.730469 641.863281 476.949219 642.585938 476.152344 C 643.308594 475.355469 644.011719 474.539062 644.695312 473.707031 C 645.378906 472.875 646.042969 472.023438 646.683594 471.160156 C 647.324219 470.296875 647.945312 469.414062 648.542969 468.519531 C 649.140625 467.625 649.71875 466.714844 650.273438 465.789062 C 650.824219 464.867188 651.355469 463.929688 651.863281 462.980469 C 652.371094 462.027344 652.855469 461.066406 653.316406 460.09375 C 653.777344 459.121094 654.214844 458.136719 654.625 457.140625 C 655.039062 456.144531 655.425781 455.140625 655.789062 454.125 C 656.152344 453.113281 656.488281 452.089844 656.800781 451.058594 C 657.113281 450.027344 657.402344 448.992188 657.664062 447.945312 C 657.925781 446.902344 658.160156 445.851562 658.371094 444.792969 C 658.582031 443.738281 658.765625 442.675781 658.921875 441.609375 C 659.082031 440.546875 659.214844 439.476562 659.320312 438.40625 C 659.425781 437.332031 659.503906 436.257812 659.558594 435.183594 C 659.609375 434.109375 659.636719 433.03125 659.636719 431.953125 L 659.636719 133.261719 Z M 419.496094 320.351562 " fill-opacity="1" fill-rule="nonzero"/></g></svg>