<svg xmlns="http://www.w3.org/2000/svg" xmlns:xlink="http://www.w3.org/1999/xlink" width="940" zoomAndPan="magnify" viewBox="0 0 705 591.000005" height="788" preserveAspectRatio="xMidYMid meet" version="1.0"><defs><g/><clipPath id="613494b5cb"><path d="M 76 25.367188 L 648.453125 25.367188 L 648.453125 590 L 76 590 Z M 76 25.367188 " clip-rule="nonzero"/></clipPath><clipPath id="4eb5c1100a"><path d="M 76 25.367188 L 364 25.367188 L 364 590 L 76 590 Z M 76 25.367188 " clip-rule="nonzero"/></clipPath></defs><g fill="#ffffff" fill-opacity="1"><g transform="translate(263.316136, 269.332427)"><g><path d="M 9.796875 0 L 8.421875 0 L 7.421875 -2.984375 L 2.78125 -2.984375 L 1.765625 0 L 0.4375 0 L 4.21875 -10.875 L 6 -10.875 Z M 5 -9.5625 L 3.140625 -4.046875 L 7.046875 -4.046875 L 5.1875 -9.5625 Z M 5 -9.5625 "/></g></g><g transform="translate(273.536323, 269.332427)"><g><path d="M 4.25 0.15625 C 3.59375 0.15625 3.007812 0 2.5 -0.3125 C 2 -0.625 1.609375 -1.097656 1.328125 -1.734375 C 1.046875 -2.367188 0.90625 -3.15625 0.90625 -4.09375 C 0.90625 -5.03125 1.050781 -5.816406 1.34375 -6.453125 C 1.644531 -7.097656 2.054688 -7.578125 2.578125 -7.890625 C 3.097656 -8.203125 3.703125 -8.359375 4.390625 -8.359375 C 4.941406 -8.359375 5.4375 -8.253906 5.875 -8.046875 C 6.3125 -7.847656 6.6875 -7.507812 7 -7.03125 L 7.15625 -7.0625 L 7.15625 -11.5 L 8.359375 -11.5 L 8.359375 0 L 7.15625 0 L 7.15625 -1.203125 L 7 -1.234375 C 6.726562 -0.828125 6.363281 -0.492188 5.90625 -0.234375 C 5.445312 0.0234375 4.894531 0.15625 4.25 0.15625 Z M 4.640625 -0.9375 C 5.398438 -0.9375 6.007812 -1.195312 6.46875 -1.71875 C 6.925781 -2.238281 7.15625 -3.03125 7.15625 -4.09375 C 7.15625 -5.164062 6.925781 -5.960938 6.46875 -6.484375 C 6.007812 -7.015625 5.398438 -7.28125 4.640625 -7.28125 C 3.847656 -7.28125 3.238281 -7.023438 2.8125 -6.515625 C 2.382812 -6.003906 2.171875 -5.195312 2.171875 -4.09375 C 2.171875 -1.988281 2.992188 -0.9375 4.640625 -0.9375 Z M 4.640625 -0.9375 "/></g></g><g transform="translate(283.33253, 269.332427)"><g><path d="M 4.25 0.15625 C 3.59375 0.15625 3.007812 0 2.5 -0.3125 C 2 -0.625 1.609375 -1.097656 1.328125 -1.734375 C 1.046875 -2.367188 0.90625 -3.15625 0.90625 -4.09375 C 0.90625 -5.03125 1.050781 -5.816406 1.34375 -6.453125 C 1.644531 -7.097656 2.054688 -7.578125 2.578125 -7.890625 C 3.097656 -8.203125 3.703125 -8.359375 4.390625 -8.359375 C 4.941406 -8.359375 5.4375 -8.253906 5.875 -8.046875 C 6.3125 -7.847656 6.6875 -7.507812 7 -7.03125 L 7.15625 -7.0625 L 7.15625 -11.5 L 8.359375 -11.5 L 8.359375 0 L 7.15625 0 L 7.15625 -1.203125 L 7 -1.234375 C 6.726562 -0.828125 6.363281 -0.492188 5.90625 -0.234375 C 5.445312 0.0234375 4.894531 0.15625 4.25 0.15625 Z M 4.640625 -0.9375 C 5.398438 -0.9375 6.007812 -1.195312 6.46875 -1.71875 C 6.925781 -2.238281 7.15625 -3.03125 7.15625 -4.09375 C 7.15625 -5.164062 6.925781 -5.960938 6.46875 -6.484375 C 6.007812 -7.015625 5.398438 -7.28125 4.640625 -7.28125 C 3.847656 -7.28125 3.238281 -7.023438 2.8125 -6.515625 C 2.382812 -6.003906 2.171875 -5.195312 2.171875 -4.09375 C 2.171875 -1.988281 2.992188 -0.9375 4.640625 -0.9375 Z M 4.640625 -0.9375 "/></g></g><g transform="translate(293.128736, 269.332427)"><g/></g><g transform="translate(296.862749, 269.332427)"><g><path d="M 3.390625 0.15625 C 2.578125 0.15625 1.941406 -0.0507812 1.484375 -0.46875 C 1.035156 -0.894531 0.8125 -1.5 0.8125 -2.28125 C 0.8125 -2.769531 0.910156 -3.179688 1.109375 -3.515625 C 1.304688 -3.847656 1.613281 -4.117188 2.03125 -4.328125 C 2.457031 -4.546875 3.015625 -4.707031 3.703125 -4.8125 C 4.296875 -4.914062 4.742188 -5.03125 5.046875 -5.15625 C 5.359375 -5.28125 5.566406 -5.414062 5.671875 -5.5625 C 5.785156 -5.71875 5.84375 -5.914062 5.84375 -6.15625 C 5.84375 -6.519531 5.710938 -6.800781 5.453125 -7 C 5.203125 -7.207031 4.789062 -7.3125 4.21875 -7.3125 C 3.6875 -7.3125 3.234375 -7.207031 2.859375 -7 C 2.484375 -6.789062 2.132812 -6.484375 1.8125 -6.078125 L 1.671875 -6.078125 L 1.078125 -6.921875 C 1.421875 -7.359375 1.859375 -7.707031 2.390625 -7.96875 C 2.929688 -8.226562 3.539062 -8.359375 4.21875 -8.359375 C 5.1875 -8.359375 5.898438 -8.144531 6.359375 -7.71875 C 6.816406 -7.300781 7.046875 -6.71875 7.046875 -5.96875 L 7.046875 -1.609375 C 7.046875 -1.160156 7.238281 -0.9375 7.625 -0.9375 C 7.757812 -0.9375 7.882812 -0.957031 8 -1 L 8.109375 -0.96875 L 8.25 -0.125 C 8.15625 -0.0625 8.035156 -0.015625 7.890625 0.015625 C 7.742188 0.046875 7.597656 0.0625 7.453125 0.0625 C 6.992188 0.0625 6.648438 -0.0351562 6.421875 -0.234375 C 6.191406 -0.429688 6.046875 -0.722656 5.984375 -1.109375 L 5.828125 -1.125 C 5.585938 -0.695312 5.269531 -0.375 4.875 -0.15625 C 4.476562 0.0507812 3.984375 0.15625 3.390625 0.15625 Z M 3.65625 -0.8125 C 4.113281 -0.8125 4.507812 -0.914062 4.84375 -1.125 C 5.175781 -1.332031 5.429688 -1.628906 5.609375 -2.015625 C 5.785156 -2.398438 5.875 -2.84375 5.875 -3.34375 L 5.875 -4.375 L 5.734375 -4.40625 C 5.546875 -4.28125 5.320312 -4.171875 5.0625 -4.078125 C 4.800781 -3.992188 4.4375 -3.921875 3.96875 -3.859375 C 3.488281 -3.785156 3.109375 -3.679688 2.828125 -3.546875 C 2.546875 -3.421875 2.34375 -3.253906 2.21875 -3.046875 C 2.101562 -2.835938 2.046875 -2.582031 2.046875 -2.28125 C 2.046875 -1.800781 2.1875 -1.4375 2.46875 -1.1875 C 2.757812 -0.9375 3.15625 -0.8125 3.65625 -0.8125 Z M 3.65625 -0.8125 "/></g></g><g transform="translate(305.349819, 269.332427)"><g/></g><g transform="translate(309.083833, 269.332427)"><g><path d="M 3.265625 0.15625 C 2.679688 0.15625 2.222656 -0.00390625 1.890625 -0.328125 C 1.566406 -0.660156 1.40625 -1.15625 1.40625 -1.8125 L 1.40625 -11.5 L 2.609375 -11.5 L 2.609375 -1.890625 C 2.609375 -1.554688 2.671875 -1.3125 2.796875 -1.15625 C 2.929688 -1.007812 3.140625 -0.9375 3.421875 -0.9375 C 3.585938 -0.9375 3.757812 -0.960938 3.9375 -1.015625 L 4.046875 -0.984375 L 4.1875 -0.03125 C 4.09375 0.03125 3.960938 0.078125 3.796875 0.109375 C 3.628906 0.140625 3.453125 0.15625 3.265625 0.15625 Z M 3.265625 0.15625 "/></g></g><g transform="translate(313.546797, 269.332427)"><g><path d="M 2.03125 -9.796875 C 1.78125 -9.796875 1.570312 -9.875 1.40625 -10.03125 C 1.25 -10.1875 1.171875 -10.390625 1.171875 -10.640625 C 1.171875 -10.890625 1.25 -11.09375 1.40625 -11.25 C 1.570312 -11.414062 1.78125 -11.5 2.03125 -11.5 C 2.289062 -11.5 2.5 -11.414062 2.65625 -11.25 C 2.820312 -11.09375 2.90625 -10.890625 2.90625 -10.640625 C 2.90625 -10.390625 2.820312 -10.1875 2.65625 -10.03125 C 2.5 -9.875 2.289062 -9.796875 2.03125 -9.796875 Z M 1.421875 0 L 1.421875 -8.203125 L 2.640625 -8.203125 L 2.640625 0 Z M 1.421875 0 "/></g></g><g transform="translate(317.615532, 269.332427)"><g><path d="M 5.546875 -1.296875 L 5.9375 -0.4375 C 5.738281 -0.238281 5.484375 -0.09375 5.171875 0 C 4.859375 0.101562 4.519531 0.15625 4.15625 0.15625 C 2.582031 0.15625 1.796875 -0.632812 1.796875 -2.21875 L 1.796875 -7.21875 L 0.375 -7.21875 L 0.375 -8.21875 L 1.796875 -8.21875 L 1.796875 -9.953125 L 3.015625 -10.140625 L 3.015625 -8.21875 L 5.65625 -8.21875 L 5.65625 -7.21875 L 3.015625 -7.21875 L 3.015625 -2.34375 C 3.015625 -1.40625 3.421875 -0.9375 4.234375 -0.9375 C 4.679688 -0.9375 5.066406 -1.054688 5.390625 -1.296875 Z M 5.546875 -1.296875 "/></g></g><g transform="translate(323.863682, 269.332427)"><g><path d="M 5.546875 -1.296875 L 5.9375 -0.4375 C 5.738281 -0.238281 5.484375 -0.09375 5.171875 0 C 4.859375 0.101562 4.519531 0.15625 4.15625 0.15625 C 2.582031 0.15625 1.796875 -0.632812 1.796875 -2.21875 L 1.796875 -7.21875 L 0.375 -7.21875 L 0.375 -8.21875 L 1.796875 -8.21875 L 1.796875 -9.953125 L 3.015625 -10.140625 L 3.015625 -8.21875 L 5.65625 -8.21875 L 5.65625 -7.21875 L 3.015625 -7.21875 L 3.015625 -2.34375 C 3.015625 -1.40625 3.421875 -0.9375 4.234375 -0.9375 C 4.679688 -0.9375 5.066406 -1.054688 5.390625 -1.296875 Z M 5.546875 -1.296875 "/></g></g><g transform="translate(330.111832, 269.332427)"><g><path d="M 3.265625 0.15625 C 2.679688 0.15625 2.222656 -0.00390625 1.890625 -0.328125 C 1.566406 -0.660156 1.40625 -1.15625 1.40625 -1.8125 L 1.40625 -11.5 L 2.609375 -11.5 L 2.609375 -1.890625 C 2.609375 -1.554688 2.671875 -1.3125 2.796875 -1.15625 C 2.929688 -1.007812 3.140625 -0.9375 3.421875 -0.9375 C 3.585938 -0.9375 3.757812 -0.960938 3.9375 -1.015625 L 4.046875 -0.984375 L 4.1875 -0.03125 C 4.09375 0.03125 3.960938 0.078125 3.796875 0.109375 C 3.628906 0.140625 3.453125 0.15625 3.265625 0.15625 Z M 3.265625 0.15625 "/></g></g><g transform="translate(334.574796, 269.332427)"><g><path d="M 7.8125 -3.828125 L 2.171875 -3.828125 C 2.210938 -2.828125 2.453125 -2.09375 2.890625 -1.625 C 3.335938 -1.164062 3.945312 -0.9375 4.71875 -0.9375 C 5.300781 -0.9375 5.769531 -1.035156 6.125 -1.234375 C 6.488281 -1.441406 6.773438 -1.769531 6.984375 -2.21875 L 7.140625 -2.21875 L 7.921875 -1.75 C 7.679688 -1.15625 7.300781 -0.6875 6.78125 -0.34375 C 6.257812 -0.0078125 5.570312 0.15625 4.71875 0.15625 C 3.925781 0.15625 3.242188 0 2.671875 -0.3125 C 2.109375 -0.625 1.671875 -1.097656 1.359375 -1.734375 C 1.054688 -2.367188 0.90625 -3.15625 0.90625 -4.09375 C 0.90625 -5.03125 1.066406 -5.816406 1.390625 -6.453125 C 1.710938 -7.097656 2.15625 -7.578125 2.71875 -7.890625 C 3.28125 -8.203125 3.925781 -8.359375 4.65625 -8.359375 C 5.695312 -8.359375 6.515625 -8.0625 7.109375 -7.46875 C 7.703125 -6.875 8 -5.992188 8 -4.828125 C 8 -4.378906 7.988281 -4.070312 7.96875 -3.90625 Z M 6.8125 -4.828125 C 6.789062 -5.703125 6.59375 -6.335938 6.21875 -6.734375 C 5.851562 -7.128906 5.332031 -7.328125 4.65625 -7.328125 C 3.9375 -7.328125 3.367188 -7.128906 2.953125 -6.734375 C 2.546875 -6.335938 2.296875 -5.703125 2.203125 -4.828125 Z M 6.8125 -4.828125 "/></g></g><g transform="translate(343.322205, 269.332427)"><g/></g><g transform="translate(347.056219, 269.332427)"><g><path d="M 5.453125 0.15625 C 4.835938 0.15625 4.304688 0.0390625 3.859375 -0.1875 C 3.410156 -0.425781 3.054688 -0.738281 2.796875 -1.125 L 2.640625 -1.09375 L 2.640625 0 L 1.421875 0 L 1.421875 -11.5 L 2.640625 -11.5 L 2.640625 -6.984375 L 2.796875 -6.953125 C 3.421875 -7.890625 4.328125 -8.359375 5.515625 -8.359375 C 6.191406 -8.359375 6.78125 -8.203125 7.28125 -7.890625 C 7.789062 -7.578125 8.1875 -7.101562 8.46875 -6.46875 C 8.75 -5.832031 8.890625 -5.039062 8.890625 -4.09375 C 8.890625 -3.164062 8.738281 -2.378906 8.4375 -1.734375 C 8.144531 -1.097656 7.738281 -0.625 7.21875 -0.3125 C 6.707031 0 6.117188 0.15625 5.453125 0.15625 Z M 5.15625 -0.9375 C 6.800781 -0.9375 7.625 -1.988281 7.625 -4.09375 C 7.625 -5.195312 7.410156 -6.003906 6.984375 -6.515625 C 6.554688 -7.023438 5.945312 -7.28125 5.15625 -7.28125 C 4.394531 -7.28125 3.785156 -7.015625 3.328125 -6.484375 C 2.867188 -5.960938 2.640625 -5.164062 2.640625 -4.09375 C 2.640625 -3.03125 2.867188 -2.238281 3.328125 -1.71875 C 3.785156 -1.195312 4.394531 -0.9375 5.15625 -0.9375 Z M 5.15625 -0.9375 "/></g></g><g transform="translate(356.844987, 269.332427)"><g><path d="M 2.03125 -9.796875 C 1.78125 -9.796875 1.570312 -9.875 1.40625 -10.03125 C 1.25 -10.1875 1.171875 -10.390625 1.171875 -10.640625 C 1.171875 -10.890625 1.25 -11.09375 1.40625 -11.25 C 1.570312 -11.414062 1.78125 -11.5 2.03125 -11.5 C 2.289062 -11.5 2.5 -11.414062 2.65625 -11.25 C 2.820312 -11.09375 2.90625 -10.890625 2.90625 -10.640625 C 2.90625 -10.390625 2.820312 -10.1875 2.65625 -10.03125 C 2.5 -9.875 2.289062 -9.796875 2.03125 -9.796875 Z M 1.421875 0 L 1.421875 -8.203125 L 2.640625 -8.203125 L 2.640625 0 Z M 1.421875 0 "/></g></g><g transform="translate(360.913722, 269.332427)"><g><path d="M 5.546875 -1.296875 L 5.9375 -0.4375 C 5.738281 -0.238281 5.484375 -0.09375 5.171875 0 C 4.859375 0.101562 4.519531 0.15625 4.15625 0.15625 C 2.582031 0.15625 1.796875 -0.632812 1.796875 -2.21875 L 1.796875 -7.21875 L 0.375 -7.21875 L 0.375 -8.21875 L 1.796875 -8.21875 L 1.796875 -9.953125 L 3.015625 -10.140625 L 3.015625 -8.21875 L 5.65625 -8.21875 L 5.65625 -7.21875 L 3.015625 -7.21875 L 3.015625 -2.34375 C 3.015625 -1.40625 3.421875 -0.9375 4.234375 -0.9375 C 4.679688 -0.9375 5.066406 -1.054688 5.390625 -1.296875 Z M 5.546875 -1.296875 "/></g></g><g transform="translate(367.161872, 269.332427)"><g/></g><g transform="translate(370.895885, 269.332427)"><g><path d="M 4.703125 0.15625 C 3.929688 0.15625 3.257812 -0.00390625 2.6875 -0.328125 C 2.113281 -0.660156 1.671875 -1.144531 1.359375 -1.78125 C 1.054688 -2.414062 0.90625 -3.1875 0.90625 -4.09375 C 0.90625 -5 1.054688 -5.769531 1.359375 -6.40625 C 1.671875 -7.050781 2.113281 -7.535156 2.6875 -7.859375 C 3.257812 -8.191406 3.929688 -8.359375 4.703125 -8.359375 C 5.484375 -8.359375 6.160156 -8.191406 6.734375 -7.859375 C 7.304688 -7.535156 7.742188 -7.050781 8.046875 -6.40625 C 8.359375 -5.769531 8.515625 -5 8.515625 -4.09375 C 8.515625 -3.1875 8.359375 -2.414062 8.046875 -1.78125 C 7.742188 -1.144531 7.304688 -0.660156 6.734375 -0.328125 C 6.160156 -0.00390625 5.484375 0.15625 4.703125 0.15625 Z M 4.703125 -0.9375 C 5.523438 -0.9375 6.148438 -1.191406 6.578125 -1.703125 C 7.015625 -2.222656 7.234375 -3.019531 7.234375 -4.09375 C 7.234375 -5.1875 7.015625 -5.988281 6.578125 -6.5 C 6.148438 -7.019531 5.523438 -7.28125 4.703125 -7.28125 C 3.890625 -7.28125 3.265625 -7.019531 2.828125 -6.5 C 2.390625 -5.976562 2.171875 -5.175781 2.171875 -4.09375 C 2.171875 -3.019531 2.390625 -2.222656 2.828125 -1.703125 C 3.265625 -1.191406 3.890625 -0.9375 4.703125 -0.9375 Z M 4.703125 -0.9375 "/></g></g><g transform="translate(380.312739, 269.332427)"><g><path d="M 1.828125 0 L 1.828125 -7.21875 L 0.40625 -7.21875 L 0.40625 -8.21875 L 1.828125 -8.21875 C 1.742188 -8.570312 1.703125 -8.910156 1.703125 -9.234375 C 1.703125 -9.765625 1.8125 -10.210938 2.03125 -10.578125 C 2.257812 -10.941406 2.570312 -11.210938 2.96875 -11.390625 C 3.375 -11.566406 3.835938 -11.65625 4.359375 -11.65625 C 5.179688 -11.65625 5.8125 -11.476562 6.25 -11.125 L 5.78125 -10.265625 L 5.625 -10.25 C 5.300781 -10.5 4.878906 -10.625 4.359375 -10.625 C 3.878906 -10.625 3.515625 -10.5 3.265625 -10.25 C 3.023438 -10.007812 2.90625 -9.660156 2.90625 -9.203125 C 2.90625 -8.921875 2.953125 -8.59375 3.046875 -8.21875 L 5.65625 -8.21875 L 5.65625 -7.21875 L 3.046875 -7.21875 L 3.046875 0 Z M 1.828125 0 "/></g></g><g transform="translate(386.159222, 269.332427)"><g/></g><g transform="translate(389.893235, 269.332427)"><g><path d="M 5.453125 0.15625 C 4.835938 0.15625 4.304688 0.0390625 3.859375 -0.1875 C 3.410156 -0.425781 3.054688 -0.738281 2.796875 -1.125 L 2.640625 -1.09375 L 2.640625 0 L 1.421875 0 L 1.421875 -11.5 L 2.640625 -11.5 L 2.640625 -6.984375 L 2.796875 -6.953125 C 3.421875 -7.890625 4.328125 -8.359375 5.515625 -8.359375 C 6.191406 -8.359375 6.78125 -8.203125 7.28125 -7.890625 C 7.789062 -7.578125 8.1875 -7.101562 8.46875 -6.46875 C 8.75 -5.832031 8.890625 -5.039062 8.890625 -4.09375 C 8.890625 -3.164062 8.738281 -2.378906 8.4375 -1.734375 C 8.144531 -1.097656 7.738281 -0.625 7.21875 -0.3125 C 6.707031 0 6.117188 0.15625 5.453125 0.15625 Z M 5.15625 -0.9375 C 6.800781 -0.9375 7.625 -1.988281 7.625 -4.09375 C 7.625 -5.195312 7.410156 -6.003906 6.984375 -6.515625 C 6.554688 -7.023438 5.945312 -7.28125 5.15625 -7.28125 C 4.394531 -7.28125 3.785156 -7.015625 3.328125 -6.484375 C 2.867188 -5.960938 2.640625 -5.164062 2.640625 -4.09375 C 2.640625 -3.03125 2.867188 -2.238281 3.328125 -1.71875 C 3.785156 -1.195312 4.394531 -0.9375 5.15625 -0.9375 Z M 5.15625 -0.9375 "/></g></g><g transform="translate(399.682003, 269.332427)"><g><path d="M 4.703125 0.15625 C 3.929688 0.15625 3.257812 -0.00390625 2.6875 -0.328125 C 2.113281 -0.660156 1.671875 -1.144531 1.359375 -1.78125 C 1.054688 -2.414062 0.90625 -3.1875 0.90625 -4.09375 C 0.90625 -5 1.054688 -5.769531 1.359375 -6.40625 C 1.671875 -7.050781 2.113281 -7.535156 2.6875 -7.859375 C 3.257812 -8.191406 3.929688 -8.359375 4.703125 -8.359375 C 5.484375 -8.359375 6.160156 -8.191406 6.734375 -7.859375 C 7.304688 -7.535156 7.742188 -7.050781 8.046875 -6.40625 C 8.359375 -5.769531 8.515625 -5 8.515625 -4.09375 C 8.515625 -3.1875 8.359375 -2.414062 8.046875 -1.78125 C 7.742188 -1.144531 7.304688 -0.660156 6.734375 -0.328125 C 6.160156 -0.00390625 5.484375 0.15625 4.703125 0.15625 Z M 4.703125 -0.9375 C 5.523438 -0.9375 6.148438 -1.191406 6.578125 -1.703125 C 7.015625 -2.222656 7.234375 -3.019531 7.234375 -4.09375 C 7.234375 -5.1875 7.015625 -5.988281 6.578125 -6.5 C 6.148438 -7.019531 5.523438 -7.28125 4.703125 -7.28125 C 3.890625 -7.28125 3.265625 -7.019531 2.828125 -6.5 C 2.390625 -5.976562 2.171875 -5.175781 2.171875 -4.09375 C 2.171875 -3.019531 2.390625 -2.222656 2.828125 -1.703125 C 3.265625 -1.191406 3.890625 -0.9375 4.703125 -0.9375 Z M 4.703125 -0.9375 "/></g></g><g transform="translate(409.098858, 269.332427)"><g><path d="M 4.25 0.15625 C 3.59375 0.15625 3.007812 0 2.5 -0.3125 C 2 -0.625 1.609375 -1.097656 1.328125 -1.734375 C 1.046875 -2.367188 0.90625 -3.15625 0.90625 -4.09375 C 0.90625 -5.03125 1.050781 -5.816406 1.34375 -6.453125 C 1.644531 -7.097656 2.054688 -7.578125 2.578125 -7.890625 C 3.097656 -8.203125 3.703125 -8.359375 4.390625 -8.359375 C 4.941406 -8.359375 5.4375 -8.253906 5.875 -8.046875 C 6.3125 -7.847656 6.6875 -7.507812 7 -7.03125 L 7.15625 -7.0625 L 7.15625 -11.5 L 8.359375 -11.5 L 8.359375 0 L 7.15625 0 L 7.15625 -1.203125 L 7 -1.234375 C 6.726562 -0.828125 6.363281 -0.492188 5.90625 -0.234375 C 5.445312 0.0234375 4.894531 0.15625 4.25 0.15625 Z M 4.640625 -0.9375 C 5.398438 -0.9375 6.007812 -1.195312 6.46875 -1.71875 C 6.925781 -2.238281 7.15625 -3.03125 7.15625 -4.09375 C 7.15625 -5.164062 6.925781 -5.960938 6.46875 -6.484375 C 6.007812 -7.015625 5.398438 -7.28125 4.640625 -7.28125 C 3.847656 -7.28125 3.238281 -7.023438 2.8125 -6.515625 C 2.382812 -6.003906 2.171875 -5.195312 2.171875 -4.09375 C 2.171875 -1.988281 2.992188 -0.9375 4.640625 -0.9375 Z M 4.640625 -0.9375 "/></g></g><g transform="translate(418.895064, 269.332427)"><g><path d="M 1.640625 3.484375 C 1.367188 3.484375 1.109375 3.457031 0.859375 3.40625 C 0.617188 3.363281 0.414062 3.300781 0.25 3.21875 L 0.46875 2.25 L 0.609375 2.203125 C 0.722656 2.265625 0.867188 2.316406 1.046875 2.359375 C 1.222656 2.398438 1.40625 2.421875 1.59375 2.421875 C 1.925781 2.421875 2.203125 2.375 2.421875 2.28125 C 2.640625 2.195312 2.828125 2.050781 2.984375 1.84375 C 3.140625 1.644531 3.285156 1.363281 3.421875 1 L 3.71875 0.1875 L 0.421875 -8.203125 L 1.71875 -8.203125 L 4.3125 -1.515625 L 4.453125 -1.515625 L 6.953125 -8.203125 L 8.1875 -8.203125 L 4.515625 1.28125 C 4.304688 1.8125 4.070312 2.234375 3.8125 2.546875 C 3.5625 2.867188 3.257812 3.101562 2.90625 3.25 C 2.550781 3.40625 2.128906 3.484375 1.640625 3.484375 Z M 1.640625 3.484375 "/></g></g><g transform="translate(427.545776, 269.332427)"><g/></g><g transform="translate(431.279789, 269.332427)"><g><path d="M 5.546875 -1.296875 L 5.9375 -0.4375 C 5.738281 -0.238281 5.484375 -0.09375 5.171875 0 C 4.859375 0.101562 4.519531 0.15625 4.15625 0.15625 C 2.582031 0.15625 1.796875 -0.632812 1.796875 -2.21875 L 1.796875 -7.21875 L 0.375 -7.21875 L 0.375 -8.21875 L 1.796875 -8.21875 L 1.796875 -9.953125 L 3.015625 -10.140625 L 3.015625 -8.21875 L 5.65625 -8.21875 L 5.65625 -7.21875 L 3.015625 -7.21875 L 3.015625 -2.34375 C 3.015625 -1.40625 3.421875 -0.9375 4.234375 -0.9375 C 4.679688 -0.9375 5.066406 -1.054688 5.390625 -1.296875 Z M 5.546875 -1.296875 "/></g></g><g transform="translate(437.527939, 269.332427)"><g><path d="M 7.8125 -3.828125 L 2.171875 -3.828125 C 2.210938 -2.828125 2.453125 -2.09375 2.890625 -1.625 C 3.335938 -1.164062 3.945312 -0.9375 4.71875 -0.9375 C 5.300781 -0.9375 5.769531 -1.035156 6.125 -1.234375 C 6.488281 -1.441406 6.773438 -1.769531 6.984375 -2.21875 L 7.140625 -2.21875 L 7.921875 -1.75 C 7.679688 -1.15625 7.300781 -0.6875 6.78125 -0.34375 C 6.257812 -0.0078125 5.570312 0.15625 4.71875 0.15625 C 3.925781 0.15625 3.242188 0 2.671875 -0.3125 C 2.109375 -0.625 1.671875 -1.097656 1.359375 -1.734375 C 1.054688 -2.367188 0.90625 -3.15625 0.90625 -4.09375 C 0.90625 -5.03125 1.066406 -5.816406 1.390625 -6.453125 C 1.710938 -7.097656 2.15625 -7.578125 2.71875 -7.890625 C 3.28125 -8.203125 3.925781 -8.359375 4.65625 -8.359375 C 5.695312 -8.359375 6.515625 -8.0625 7.109375 -7.46875 C 7.703125 -6.875 8 -5.992188 8 -4.828125 C 8 -4.378906 7.988281 -4.070312 7.96875 -3.90625 Z M 6.8125 -4.828125 C 6.789062 -5.703125 6.59375 -6.335938 6.21875 -6.734375 C 5.851562 -7.128906 5.332031 -7.328125 4.65625 -7.328125 C 3.9375 -7.328125 3.367188 -7.128906 2.953125 -6.734375 C 2.546875 -6.335938 2.296875 -5.703125 2.203125 -4.828125 Z M 6.8125 -4.828125 "/></g></g><g transform="translate(446.275348, 269.332427)"><g><path d="M 1.703125 0 L 0.375 0 L 2.90625 -4.25 L 0.5 -8.203125 L 1.859375 -8.203125 L 3.765625 -5.046875 L 3.9375 -5.046875 L 5.84375 -8.203125 L 7.15625 -8.203125 L 4.796875 -4.25 L 7.28125 0 L 5.90625 0 L 3.890625 -3.46875 L 3.71875 -3.46875 Z M 1.703125 0 "/></g></g><g transform="translate(453.921894, 269.332427)"><g><path d="M 5.546875 -1.296875 L 5.9375 -0.4375 C 5.738281 -0.238281 5.484375 -0.09375 5.171875 0 C 4.859375 0.101562 4.519531 0.15625 4.15625 0.15625 C 2.582031 0.15625 1.796875 -0.632812 1.796875 -2.21875 L 1.796875 -7.21875 L 0.375 -7.21875 L 0.375 -8.21875 L 1.796875 -8.21875 L 1.796875 -9.953125 L 3.015625 -10.140625 L 3.015625 -8.21875 L 5.65625 -8.21875 L 5.65625 -7.21875 L 3.015625 -7.21875 L 3.015625 -2.34375 C 3.015625 -1.40625 3.421875 -0.9375 4.234375 -0.9375 C 4.679688 -0.9375 5.066406 -1.054688 5.390625 -1.296875 Z M 5.546875 -1.296875 "/></g></g></g><g clip-path="url(#613494b5cb)"><path fill="#ffc44d" d="M 96.261719 24.035156 C 90.523438 24.035156 85.0625 26.5 81.265625 30.800781 C 77.464844 35.101562 75.699219 40.828125 76.410156 46.523438 L 129.761719 473.335938 C 130.59375 479.972656 134.683594 485.757812 140.667969 488.75 L 354.074219 595.453125 C 359.707031 598.269531 366.335938 598.269531 371.96875 595.453125 L 585.375 488.75 C 591.359375 485.757812 595.449219 479.972656 596.28125 473.335938 L 649.632812 46.523438 C 650.34375 40.828125 648.574219 35.101562 644.777344 30.800781 C 640.980469 26.5 635.515625 24.035156 629.777344 24.035156 Z M 96.261719 24.035156 " fill-opacity="1" fill-rule="nonzero"/></g><g clip-path="url(#4eb5c1100a)"><path fill="#e5b045" d="M 363.019531 24.035156 L 363.019531 597.5625 C 359.957031 597.5625 356.890625 596.859375 354.074219 595.453125 L 140.667969 488.75 C 134.683594 485.757812 130.59375 479.972656 129.761719 473.335938 L 76.410156 46.523438 C 75.699219 40.828125 77.464844 35.101562 81.265625 30.800781 C 85.0625 26.5 90.523438 24.035156 96.261719 24.035156 Z M 363.019531 24.035156 " fill-opacity="1" fill-rule="evenodd"/></g><path fill="#cfd8dc" d="M 323.011719 104.0625 C 334.058594 104.0625 343.015625 113.019531 343.015625 124.070312 L 343.015625 470.855469 C 343.015625 477.988281 339.222656 484.578125 333.050781 488.160156 C 326.882812 491.738281 319.273438 491.761719 313.082031 488.226562 L 219.71875 434.875 C 210.125 429.390625 206.792969 417.167969 212.273438 407.578125 C 217.757812 397.984375 229.976562 394.648438 239.570312 400.132812 L 303.003906 436.378906 L 303.003906 124.070312 C 303.003906 113.019531 311.960938 104.0625 323.011719 104.0625 Z M 323.011719 104.0625 " fill-opacity="1" fill-rule="evenodd"/><path fill="#eceff1" d="M 383.035156 124.070312 C 383.035156 113.019531 391.992188 104.0625 403.039062 104.0625 L 536.417969 104.0625 C 547.46875 104.0625 556.425781 113.019531 556.425781 124.070312 C 556.425781 135.117188 547.46875 144.074219 536.417969 144.074219 L 423.046875 144.074219 L 423.046875 272.519531 L 518.742188 251.253906 C 524.976562 249.871094 531.496094 251.542969 536.292969 255.761719 C 541.089844 259.980469 543.585938 266.234375 543.003906 272.597656 L 529.667969 419.3125 C 529.039062 426.214844 524.886719 432.300781 518.691406 435.398438 L 411.988281 488.75 C 402.105469 493.691406 390.085938 489.683594 385.144531 479.800781 C 380.203125 469.917969 384.210938 457.898438 394.09375 452.960938 L 490.828125 404.589844 L 500.675781 296.257812 L 407.378906 316.992188 C 401.457031 318.308594 395.253906 316.867188 390.519531 313.066406 C 385.785156 309.269531 383.035156 303.53125 383.035156 297.460938 Z M 383.035156 124.070312 " fill-opacity="1" fill-rule="evenodd"/></svg>